<?xml version="1.0" encoding="utf-8"?>
<!-- Generator: Adobe Illustrator 19.2.1, SVG Export Plug-In . SVG Version: 6.00 Build 0)  -->
<svg version="1.1" id="logotip_x5F_curves112_xA0_Image_1_"
	 xmlns="http://www.w3.org/2000/svg" xmlns:xlink="http://www.w3.org/1999/xlink" x="0px" y="0px" viewBox="0 0 807 980.7"
	 style="enable-background:new 0 0 807 980.7;" xml:space="preserve">
<style type="text/css">
	.st0{fill:#FFFFFF;}
</style>
<g>
	<path class="st0" d="M165.4,723.3c-7.5,0.2-14.1,0.2-19.8-3.8c-0.5-0.4-1.8,0-2.6,0.4c-15.4,7.3-31.8,11.2-48.7,12
		c-40.6,2-75.5-23.8-84.3-61.5c-4.3-18.6-1.5-36.2,8.1-52.7c1.2-2.1,2.2-3.7,0-6.1c-2.4-2.5-1.9-6-1-9.2c2.3-8,7-14.8,12.4-20.8
		c4.1-4.6,5.3-9,4.8-15.2c-2.4-29.9,5.5-57.4,21.2-82.7c3-4.9,6.4-9.7,9.8-14.3c1.5-2,2.1-3.9,1.7-6.5c-2-12.6-5.4-24.7-11.2-36.1
		c-0.9-1.8-2-2.6-4.1-2.8c-6.7-0.6-13.4-1.5-19.9-2.2c-0.8,3.5-1.5,6.9-2.2,10.2c-0.3,0.1-0.6,0.1-1,0.2
		c-5.6-7.2-12.3-12.9-21.4-15.2c10-1.8,18.5-6.4,25.9-13.6c0,3.2,0,6.4,0,9.9c6.4,0.4,13,0.8,19.6,1.1c0.8,0,1.9-0.6,2.3-1.3
		c9.8-14.8,13.6-30.6,7.8-48c-0.3-1-1-2.3-1.9-2.8c-9.2-5-18.5-9.8-28-14.8c-0.7,1.7-1,3.4-2,4.5c-0.9,1.1-2.6,1.6-3.9,2.3
		c-0.5-1-1.3-2-1.5-3.1c-1.2-6.9-4.5-12.7-9.5-17.5c-0.8-0.7-1.5-1.5-2.3-2.2c-0.1-0.1,0-0.2-0.1-0.7c8.8,2.2,17.5,5.3,26.1-1.1
		c1.5,3.9-0.6,6.3-3.5,9c4.2,2.5,8.1,4.8,12,7.1c5.5,3.2,11,6.2,16.4,9.6c2.4,1.5,3.9,1,5.8-0.7c9.4-8.6,14.1-19.3,15.9-31.8
		c1.2-8.8,0.3-16.4-7.2-22.4c-3-2.4-5.3-5.8-8.3-9.2c-1.5,4-2.8,8.1-8.2,6.5c3.3-11.3-3.4-19.7-8.4-28.9c9.5,5.4,18.2,12,29.9,9.9
		c-1.5,3.8-4.7,4.9-8.8,5.7c5.1,5.2,9.5,10.4,14.6,14.6c1.6,1.3,5.8,1.1,7.8-0.2c4.4-2.8,8.4-6.6,12.2-10.3c2.3-2.2,3.8-5.2,5.7-7.8
		c4.9-7,7.2-14.5,6.9-23.4c-1-27.6,1.9-54.9,7.6-81.9c0.4-1.9,1.2-3.9,2.2-5.6c11.8-19.3,23.9-38.4,38.8-55.6
		c21.1-24.4,45.2-45.2,73.2-61.2c36.6-20.9,75.4-35.6,117.2-41.9c11.6-1.8,23.5-2.3,35.3-2.6c16.7-0.5,33.5,0,50,3.1
		c31.9,5.9,62.1,16.8,91.1,30.9c25.2,12.2,49.1,26.4,70.8,44.2c15.6,12.8,29,27.8,40.6,44.3c9.2,13.1,17.9,26.5,26.2,40.1
		c2.3,3.8,2.6,9,3.5,13.6c4.9,26.2,6.4,52.6,6,79.2c0,2.7,0.7,5.7,1.9,8.2c3.8,8,8.5,15.4,15,21.6c3.4,3.3,7.1,6.5,12.2,6.3
		c1.5-0.1,3.4-0.8,4.5-1.9c4.4-4.3,8.6-8.8,13.1-13.4c-6.3-2.2-6.9-2.6-8.3-5.9c11.6,2.1,20.2-4.6,29.6-9.9
		c-5.1,9.2-11.8,17.6-8.5,28.9c-4.3,0.9-5.1,0.3-8.3-6.3c-4.2,4.7-8.2,9.5-12.5,13.9c-2.7,2.7-3.4,5.7-3.3,9.3
		c0.2,15.4,4.4,29.2,16.2,39.9c2.1,1.9,3.7,2.4,6.4,0.7c7.9-4.9,16.1-9.5,24.1-14.2c1.2-0.7,2.3-1.5,3.4-2.2c-4.1-5.7-4.1-5.7-3-9.1
		c8.3,6.3,17.1,3.3,25.8,1c0.3,0.3,0.5,0.6,0.8,1c-1,0.6-2,1.1-2.8,1.8c-5.3,4.9-8.6,10.8-9.8,18c-0.2,1-1.1,2.7-1.4,2.7
		c-1.3-0.2-2.8-0.7-3.6-1.7c-1.1-1.4-1.5-3.2-2.4-5.1c-9.4,4.9-18.7,9.8-28,14.8c-0.9,0.5-1.5,1.8-1.8,2.8
		c-4.8,14-3.2,27.5,3.4,40.5c4.5,8.9,4.5,8.9,14.4,8.4c4.1-0.2,8.1-0.4,12.1-0.7c-0.2-3.4-0.3-6.6-0.5-9.9c0.3-0.2,0.6-0.3,0.9-0.5
		c7,7.4,15.3,12.3,25.5,13.9c-9.1,2.3-15.9,7.8-21.4,15.2c-0.4,0-0.7,0-1.1-0.1c-0.7-3.3-1.4-6.6-2.2-10.2c-7,0.8-14.3,1.5-21.6,2.4
		c-0.7,0.1-1.5,1.1-1.9,1.9c-6.5,12.2-10.1,25.3-11.9,38.8c-0.2,1.3,0.9,3,1.8,4.2c11.8,15.7,21,32.6,26.4,51.5
		c4.8,16.8,6.2,33.9,4.2,51.3c-0.2,2.1,0.5,3.5,1.7,5.2c5.1,7.1,10.2,14.3,14.6,21.8c2.6,4.5,3.4,9.8-0.8,14.4
		c-0.5,0.5,0.1,2.3,0.7,3.3c7.6,13,11.2,26.8,10.3,41.9c-1.7,30.3-22.9,57.7-52.7,68.4c-18.4,6.6-37,6.5-55.7,1.5
		c-3.6-1-6.5-0.8-9.5,1.6c-4.3,3.3-9,6.2-13.8,9.4c4.4,3.8,8.6,7.3,12.6,11c1,0.9,1.8,2.4,1.9,3.7c1.8,23.5,3.4,47.1,5.1,70.6
		c1.3,19.1,2.4,38.1,4.1,57.2c0.6,6.2,2.9,12.3,4.5,18.4c6,22.6,12,45.2,17.9,67.8c0.1,0.4,0.2,0.8,0.4,1.8
		c-7.6-5.7-14.7-11.1-21.9-16.6C641,915,590.3,876.6,539.5,838.3c-3.1-2.3-5.2-5-6.4-8.8c-3.4-10.7-7.3-21.3-11-31.9
		c-0.3-1-0.8-1.9-1.4-3.5c-9,11.3-17.8,22.2-26.6,33.3c-0.6-0.8-1-1.3-1.5-1.9c-3,2.2-5,4.6-5.5,8.3c-0.6,4.6-1.7,9.1-2.7,13.6
		c-0.1,0.6-0.3,1.7-0.5,1.8c-3.9,0.6-3.2,4.1-3.9,6.5c-4,13.5-12.6,23.7-24.2,31.1c-26.8,17.1-55.1,20.9-84.9,8
		c-3.2-1.4-6.2-3.5-9.3-5.2c-3.4-1.9-5.8-4.3-5.7-8.5c0-0.7-1.6-2.2-2.4-2.1c-5,0.4-7.3-2.6-9.6-6.4c-6.7-11.1-11.5-22.8-13.7-35.5
		c-0.3-2-1.2-3.1-3-4.1c-10.4-5.9-16.8-15.2-21.3-25.9c-2.6-6.3-4.4-13-6.5-19.5c-0.3-0.8-0.5-1.6-1-3.1c-3,6.9-5.6,13.1-8.3,19.3
		c-9,21.1-18.1,42.2-27,63.3c-0.9,2.2-2.2,3.4-4.4,4.1c-16.1,5.5-32.3,5.4-48.5,1.1c-3.2-0.8-4.8-0.4-6.6,2.6
		c-8.3,13.8-16.8,27.4-25.4,41c-0.9,1.4-2.7,2.7-4.4,3.1c-8.1,2.2-16.2,4.1-24.3,6.3c-1.4,0.4-2.9,1.4-3.7,2.6
		c-7.7,11.5-15.2,23.1-23,34.5c-1.2,1.8-3.3,3.2-5.2,4.3c-1.9,1.1-4.1,1.9-6.2,2.6c-3.7,1.2-6.4,3.4-8.7,6.7
		c-1.3,1.8-3.6,2.9-5.9,4.7c0.8-3.6,1-6.7,2.1-9.5c1.1-2.9,3-5.4,4.7-8.3c-6.5-6.6-3.3-13,0.5-19.3c6.4-10.3,13-20.4,19.5-30.7
		c0.8-1.2,1.2-3,1-4.4c-2.3-12.6-4.9-25.1-7.1-37.6c-0.3-1.7,0.1-3.9,0.9-5.4c7.4-12.5,15-25,22.6-37.4c1.3-2.1,1.4-3.3-0.4-5.2
		c-11.3-11.9-17.2-26.5-20.8-42.2c-0.3-1.1,0.4-2.7,1.2-3.6c14-17,28.1-33.9,42.2-50.8C163.7,725.6,164.3,724.8,165.4,723.3z
		 M628.2,370.1c-1.6-1.1-3.3-2.2-5.2-3.4c0,3.1-0.1,5.7,0,8.2c0.8,14.9,0.6,29.8-1.6,44.7c-1.7,11.9-4.6,23.4-11.9,33.3
		c-1.8,2.4-4.1,4.5-6.2,6.8c-0.2-0.2-0.4-0.3-0.6-0.5c6.5-8.6,10-18.4,11.8-28.9c3.9-22,2.2-44.1-0.4-66.1c-0.4-3.5-2-4.8-5.9-5.1
		c0,1.4,0,2.8,0,4.2c0.3,14.6-0.7,29-5,43c-4.7,15.3-12.5,28.7-26.8,36.4c-22.8,12.3-47.2,17-72.8,10c-21.8-6-38-18.7-47-39.9
		c-5-11.8-8.4-23.9-9.6-36.6c-1.1-11.7-1.4-23.5-2.1-35.3c-0.1-1.1-0.6-2.9-1.2-3.1c-7.8-2-15-5-21.1-10.9
		c-4.8,6-10.3,11.1-12.3,18.6c-3.6,13.2-4.5,26.8-5.9,40.4c-0.1,0.8-0.6,1.6-1,2.4c-0.3-0.1-0.6-0.2-0.9-0.3c0-0.4-0.1-0.8-0.1-1.2
		c-1.9-13.5-3.5-27-5.8-40.4c-1.3-8-7.5-13.2-12.4-19.4c-5.5,5.2-11.8,8.5-18.8,10.1c-2.7,0.6-3.7,1.7-3.6,4.7
		c0.3,19.4-1.2,38.6-6.5,57.4c-7.9,28.2-25.1,47.1-54.1,54.3c-21.3,5.2-41.7,1.9-61.7-6c-16.1-6.4-26.7-17.9-33.2-33.5
		c-6.7-16.1-8-33-7.7-50.2c0-1.5,0-3.1,0-5c-2.6,1.4-5.4,1.4-5.8,4.9c-1.9,16.5-3.4,33.1-2.5,49.8c0.8,13.4,2.7,26.5,9,38.5
		c1.3,2.5,2.9,4.8,4.3,7.3c-0.2,0.2-0.5,0.4-0.7,0.5c-2.3-2.7-4.9-5.3-6.9-8.2c-5.8-8.3-8.4-17.8-10.1-27.6c-3.1-17.8-3-35.7-2-53.6
		c0.1-1,0-1.9,0-3.4c-2.5,1.6-4.3,2.8-6.2,4.1c-7.2,5-14.5,10-21.6,15.1c-1.1,0.8-2.2,2.5-2.3,3.9c-0.5,4.6-0.6,9.2-0.8,13.8
		c-0.7,14.7-1.7,29.4-5.4,43.7c-0.9,3.7-2,7.4-3.1,11.3c11.5-6.1,17.8-28.2,19.1-66c1.9,15.6,2.6,31.2-1.1,46.7
		c-2.4,10.3-7,19.4-16.1,25.5c-1.7,1.1-2.4,2.3-2.7,4.3c-0.4,2.3-1.7,4.3-2.4,6.5c-0.5,1.3-1,2.7-1,4.1c0,1.7,0.4,3.4,0.6,5.1
		c0.7,5.1,1.4,10.3,2.1,15.5c0.5-0.2,0.6-0.2,0.7-0.2c0.3-0.5,0.6-1.1,0.9-1.7c4.2-9.5,10.9-16.9,19.8-22.3c7-4.3,14.4-7.1,22.9-5.6
		c11.8,2.1,19.9,9.1,25.7,19.1c1.4,2.5,3.4,3.8,5.8,5.1c11,5.7,21.9,11.8,32.8,17.6c3.6,1.9,7.3,3.6,11,5.1c2.4,1,4.6,0.2,5.7-2.2
		c0.9-2,1.9-4.2,2-6.3c0.3-8.1-10.5-16.5-18.3-14.3c-1,0.3-2.3,2.1-2.1,3c0.3,2.1,0.9,4.6,2.3,6c1.3,1.3,3.9,1.2,5.9,1.7
		c-0.7,2.2-1.7,3-4.1,2c-4.2-1.7-7.2-4.7-8.2-9.3c-1.2-5.4,2.5-9.7,9-10.5c6.8-0.9,12.7,1.6,18.1,5.5c8.5,6.1,9.7,14.5,3.4,22.8
		c-1.3,1.8-2.8,3.4-4.7,5.8c6.5,1.6,12.3,3.4,18.2,4.4c3.9,0.7,8.2,0.6,12.1,0.1c4.8-0.7,7.2-4.4,7.2-9.6c0-4-2.5-6.6-7.4-7.6
		c-1.4-0.3-2.8-0.4-4.2-0.3c-2.9,0.1-4,2-2.7,4.6c0.6,1.2,1.6,2.3,2.6,3.6c-4.3,0.6-7.3-0.9-8.3-3.7c-0.8-2.5,0.7-5.5,3.9-7.4
		c1-0.6,2.1-1.1,3.2-1.4c6.6-1.7,12.3,0.4,17.4,4.4c5.6,4.5,6,11.3,1.4,16.7c-4.7,5.5-10.7,7.6-17.8,7.4c-9.2-0.3-17.6-3.7-25.8-7.3
		c-1.1-0.5-3-0.6-4,0c-4.1,2.3-8.4,3-13,2.2c-8.8-1.6-16.1-6.2-23.4-11c-0.9-0.6-1.9-1.1-2.8-1.7c-0.5,0.5-0.9,1-1.4,1.6
		c0.9,0.3,2,0.5,2.7,1.1c3.1,2.6,6.1,5.5,9.1,8.1c5.4,4.7,11,9.1,19,6c-0.9,4.7-2.8,6.2-6.9,5.4c-2.5-0.5-4.9-1.6-7.1-2.8
		c-7-3.7-12.8-8.9-17.9-15c-2.9-3.4-5.6-7-8.6-10.7c-0.5,1.2-0.9,2-1.2,2.9c-1.6,3.7-4.1,6.8-8,7.9c-11,3.1-21.5,1.9-31-4.6
		c-4.8-3.2-5-7.4-1.3-11.9c1.1-1.3,2.2-2.5,3.6-4.1c3.4,13,4.2,14.2,8.7,13.3c-1.9-7.8-0.5-10,4.8-9.5c-0.8,2.2-2.1,4.6-2.5,7
		c-0.4,2.8,1.7,3.9,4.2,2.4c4.3-2.6,7.3-6.3,8.3-11.4c1.3-6.8-2.3-11.2-9.2-11.3c-3.2,0-6.5,0.1-9.6,0.6
		c-9.1,1.5-17.8,4.3-24.6,10.9c-2.9,2.8-5.2,6.2-5.1,10.4c0.3,8.7,3.6,16,10.5,21.6c6.1,5,13.3,7.7,20.9,9.4
		c16.7,3.8,33.7,3.4,50.6,2.1c12.5-0.9,24.9-0.9,37.1,2.4c7.5,2.1,15.2,4.9,19.6,11.5c6.5,9.8,12.5,20,17.9,30.5
		c4.1,7.9,6.2,16.7,5.5,25.8c-0.4,5.8-2.2,11-6.2,15.4c2.9-14,2-27.6-4.1-40.6c-6.1-13-15.6-22.7-28.9-29.1
		c2.9,8.3,5.8,15.9,8.2,23.6c2.4,7.8,2.8,15.9,1.6,23.9c-1.3,9-5.4,18.7-9.2,22.1c3.1-13.8,4.6-27.4,1.4-41.3
		c-3.1-13.6-15.8-31.9-23.3-32.8c6.7,8.9,10.2,18.7,10.6,29.5c0.4,10.7-2,20.9-6,31.5c0.7-7.8,1.6-14.9,2-21.9
		c0.4-8.2-0.4-16.3-3.9-23.9c-2.8-6.1-7.1-10.8-13.8-13.6c6.4,9.7,7.9,13.7,7.8,22.7c0,4.1-0.4,8.2-1,12.2
		c-2.6,16.4-8.3,31.9-14.7,47.2c-0.5,1.3-0.8,2.7-1.4,4.7c3-1.5,5.2-3.6,7.4-3.4c2.1,0.1,4,2.6,5.7,3.8c1.7-1.4,3.6-4,6.2-4.9
		c3.5-1.3,5.1,2.4,7,4.6c1.7-1.5,3.1-3,4.8-4.1c3.9-2.8,7.4-2.2,9.6,2.1c1.3,2.4,2,5.2,2.8,7.8c0.6,2,0.8,4,1.2,6.1
		c2.7-2.8,4.9-5.7,7.6-7.8c5.6-4.5,10.3-2.9,12.2,4.1c0.6,2.1,0.8,4.2,1.3,6.6c1.6-2.8,2.6-5.4,4.3-7.5c4.9-6.1,12.1-5.8,16.4,0.7
		c1.3,2,2.1,4.4,3,6.7c0.4,0.9,0.5,1.9,0.9,3.4c4.1-4.8,8.5-8.1,14.5-7.1c6,0.9,8.9,5.4,11.1,10.7c1.7-12.9,6.7-20.4,16.7-18.3
		c0.1-0.2,0.3-0.4,0.3-0.6c-0.3-10.2-0.4-20.4-5.3-29.8c-0.4-0.8-0.5-1.9-0.3-2.7c0.1-0.4,1.2-0.9,1.8-0.8c2.4,0.1,6.6,4.3,6.6,6.8
		c0.1,7.8,0.5,15.7,0.1,23.5c-0.2,3.7-0.4,6.8,2,10c1.6,2.2,2,5.2,2.7,7.3c2.5-3.8,4.7-8.2,7.8-11.7c5-5.5,11.9-4.6,16.2,1.4
		c2.9,4.1,4.1,8.7,4.3,13.6c0.2,7.1,0.4,14.2,0.6,21.2c0,1.1,0.3,2.2,0.5,3.3c0.6-1.1,0.8-2.2,0.8-3.2c0.2-7.1,0.1-14.2,0.6-21.2
		c0.3-3.8,1.1-7.7,2.6-11.1c4.2-9.2,13.1-10.2,19.5-2.4c2.4,3,4.1,6.7,6,10c1-2.6,1.8-5.6,3.3-8.2c4.2-7.4,12.7-7.7,17.1-0.5
		c1.8,3,2.5,6.7,3.6,10.2c0.3,0.9,0.3,1.8,0.6,3.5c2.7-5.7,5.3-10.3,11.5-11.1c6-0.8,10.3,2.4,14.3,6.8c2-6.5,3.4-13.1,10.9-14.3
		c7.7-1.3,10.6,5,13.9,11.2c0.3-1.9,0.4-2.9,0.6-3.8c0.8-3.6,1.4-7.5,5.6-8.7c4.1-1.3,6.9,1.6,9.5,4.1c1.8,1.7,3.4,3.7,5.4,6
		c0.2-1.3,0.3-2.1,0.5-2.9c1-3.5,1.7-7.1,3.2-10.4c2.1-4.6,5.9-5.4,10-2.5c1.6,1.2,3.1,2.6,4.6,3.9c6-7.5,8.7-5.2,13.7,1.5
		c1.2-3.3,3-5.6,7.1-4.9c-0.6-1.6-1.1-2.7-1.5-3.9c-4.1-12.5-8.7-24.9-12.2-37.6c-2.7-9.6-3.9-19.7-0.9-29.6
		c1.2-4.1,3.6-7.9,5.5-11.7c-6.9,3.1-11.5,8.7-14.1,15.9c-3,8.5-3.3,17.2-2.6,26.1c0.4,5.5,1.2,10.9,1.8,16.4
		c-7.8-20.4-9.6-40.5,3.5-59.9c-1.3,0.3-2.2,0.7-2.9,1.3c-6.4,5.5-11.7,11.9-15.4,19.6c-6.3,13.2-6.7,27.1-4.8,41.3
		c0.5,3.9,1.4,7.8,2.2,12.6c-5.8-8.5-8.9-17-9.6-26.4c-1-14.3,3.1-27.4,9-40c0.5-1.1,0.9-2.3,1.5-3.6c-5.7,0.9-16.3,9.2-22.5,17.5
		c-11.7,15.6-14.8,33-11,52c-1.7-2.5-3.4-5-4.4-7.7c-3.2-8.7-2-17.4,0.7-25.9c4-12.5,10.8-23.5,17.8-34.4c4.2-6.5,10-10.8,17-13.6
		c12.7-5,26-5.2,39.3-4.6c9,0.4,18,1.1,27,1.1c12.4-0.1,24.7-1.2,36.4-5.7c11.7-4.6,20.1-12.2,21.9-25.4c0.7-4.9-0.7-9-4.1-12.3
		c-10.5-10.1-23.4-13-37.4-12c-4.5,0.3-6.9,3.6-7,8.2c-0.1,6.5,3.4,10.9,8.5,14.2c2.4,1.5,4.5,0.2,4.1-2.6c-0.4-2.5-1.7-4.8-2.5-7
		c5.5-0.1,6.4,1.4,5.1,9.7c4.8,0.3,5.5-0.8,8.2-12.8c8.4,5.5,8.5,12.3-0.1,17c-7.3,4-15.5,5-23.7,4.1c-6.6-0.8-11.4-4.2-13.3-10.9
		c-0.1-0.3-0.5-0.6-0.9-1c-1.2,1.6-2.3,3.1-3.4,4.5c-6.3,8.2-13.2,15.9-22.5,20.8c-2.7,1.4-5.7,2.6-8.7,3.1
		c-3.6,0.6-5.6-1.8-5.3-5.5c4.3,2.2,8.7,1.6,12.2-1.2c5.9-4.6,11.4-9.7,17-14.6c0.1-0.1-0.1-0.3-0.2-1c-1.3,0.9-2.5,1.7-3.8,2.4
		c-6.5,3.3-12.8,6.9-19.5,9.6c-5.1,2.1-10.6,1.8-15.5-1.3c-1.8-1.1-3-0.8-4.7-0.2c-6.5,2.4-13,5.2-19.7,6.7c-9,2-17.6,0.8-24-7
		c-4.2-5.1-3.8-11.7,1.2-16.1c3.6-3.1,7.8-4.9,12.5-5.3c3.8-0.3,7.3,0.6,10.2,3.2c2.4,2.1,3.1,5,1.7,7.2c-1.6,2.6-4.5,3.5-7.5,2.5
		c0.8-1.3,2.1-2.6,2.4-4c0.2-1.1-0.7-3.4-1.4-3.5c-3.9-0.8-7.7-0.2-10.8,2.6c-2.8,2.5-2.4,5.5-1.5,8.6c1.2,4,4.2,6.3,9,6.5
		c3.5,0.1,7.1,0.1,10.6-0.6c5.7-1.1,11.3-2.8,17.4-4.4c-2-2.4-3.5-4.1-4.8-5.9c-5.3-7.2-5.2-14.4,0.5-20.1
		c4.8-4.8,10.6-7.8,17.4-8.1c2.7-0.1,5.6,0.5,8.1,1.5c3.7,1.4,5.4,4.9,4.7,8.6c-0.9,4.8-4,8-8.4,9.8c-2.5,1-3.7,0-4-2.9
		c4.9,1.5,9.2-2,8.2-7.1c-0.2-1.1-1.9-2.7-3.1-2.8c-6.3-0.8-14,3.8-16.5,9.6c-1.6,3.7-1.3,7.2,0.9,10.8c1.6,2.7,3.9,3.5,6.5,2.4
		c3.6-1.5,7.2-3.3,10.7-5.1c8.7-4.8,17.2-10,26.2-14.4c6.3-3,12.3-5.8,15.2-12.7c0.1-0.2,0.2-0.4,0.4-0.5
		c8.7-11.6,24.5-19.4,41-10.9c10.6,5.4,18.6,13.3,23.8,24c0.4,0.9,0.8,1.7,1.2,2.6c1.5-6.6,2.3-13,3.3-19.3c0.9-5.7-4.3-9.6-4.3-15
		c0-0.2-0.7-0.5-1-0.7c-7.7-5.2-12.4-12.5-15.4-21.2c-4-11.5-5.4-32.6-2.8-48.7c0.5,7,0.9,16.3,2,25.4c1.3,11,4.2,21.7,10.7,31
		c1.7,2.4,3.9,4.5,5.9,6.8c0.3-0.2,0.5-0.4,0.8-0.6c-1-3.7-2.1-7.4-3-11.1c-4-15.6-4.9-31.6-5.5-47.6c-0.5-12.8-0.6-12.8-11.2-20
		c-3.8-2.6-7.5-5.3-11.2-8c3.8,1.7,7.7,3.2,11.3,5.3c3.5,2,6.7,4.7,10,7.1c3.4,2.4,6.7,4.8,10.4,7.5c0.3-1.5,0.6-2.5,0.7-3.6
		c1.6-9.4,3.2-18.8,4.7-28.2c4.6-29.3,7.9-58.6,9-88.3c1.2-33.7-1-67.1-9.1-100c-0.7-2.9-2-5-4.2-6.9
		c-12.2-10.5-24.1-21.3-36.6-31.4c-32-25.9-66.6-47.6-105.2-62.6C469.8,49.9,416,41.6,360.2,50c-43,6.5-83.3,20.7-121,42.1
		c-35.3,20.1-66.8,45.1-96.5,72.5c-2,1.8-3.1,3.9-3.7,6.5c-8,31.9-10.2,64.3-9.3,97c0.2,8,1.1,16-0.5,24c-0.7,3.5,0.9,7.5,1.6,11.3
		c0.4,2,1.3,3.9,1.6,5.9c3.3,23.9,6.6,47.8,9.9,71.7c0.5,3.3,1.2,6.6,1.9,10.2c1.6-1.1,2.6-1.9,3.6-2.6c27-20,55-38.4,85.5-52.8
		c44-20.8,90.4-31.7,138.8-33c30.2-0.8,60.4-1.6,90.7,2.3c16,2.1,31.8,4.3,47.5,8.1c38,9.3,73.1,25.4,106.3,46.1
		C621.2,362.2,624.9,365.9,628.2,370.1z M709.8,647.1c-0.5-1-0.9-1.9-1.3-2.8c-3.3-6.4-9.6-8.4-15.6-4.4c-3.8,2.5-7.5,5.5-10.4,9
		c-7.7,9.1-9.4,20.2-9.5,31.7c-0.1,12,5.9,18.4,17.8,19.1c1.3,0.1,2.8,0.6,3.6,1.4c6.1,6.4,13.4,8,21.8,6.2
		c10.1-2.1,17.9-7.8,24.7-15.3c17-18.5,22.5-39.3,13.6-63.2c-1-2.6-2.2-5.2-3.1-7.3c-2.7,0.6-4.7,1.1-7.4,1.7
		c2.1-8-1.3-13.1-6.3-17.7c-8.3-7.6-18-11.9-29.2-13c-16.9-1.6-32.2,3.1-46.5,11.9c-5,3.1-6.7,7.1-6.5,12.6c0.1,2.6,0.4,5.3,0.6,7.9
		c-12.8,2.4-18.1,8-19.5,21.1c-0.3,2.7-0.5,5.3-0.6,8c-0.5,16.5,2.7,31.8,13.7,44.8c10.6,12.4,24.6,19.5,39.8,24.4
		c1.7,0.6,4-0.4,6.3-0.8c0,0.3,0.1,1.4,0.3,2.8c3,0.3,6.1,0.7,9.2,0.9c20.2,1.5,39.3-1.4,56.2-13.8c22.5-16.6,33.9-38.2,30.7-66.6
		c-1-9-3.7-17.6-7.7-25.8c-1.1-2.3-1.9-4.4-1-7.3c1.1-3.4,0.5-7-1.7-10.1c-2.2-3.3-4.3-6.7-6.6-9.9c-10.2-14.4-22.2-26.9-37.4-36.2
		c-8.8-5.4-17.4-7.8-26.4-0.5c-0.7,0.6-3.9-0.2-4.4-1.1c-3.8-6.6-9.6-10.5-16.1-13.8c-2.2-1.1-3.5-0.8-5.1,1
		c-9.9,11-20.8,20.8-33.9,27.8c-9,4.9-18.4,8.2-28.9,7.1c-1.7-0.2-3.3-0.5-5.2-0.8c-0.4,2.4-0.6,4.5-1.1,6.6c-0.5,2,0.2,3.2,2.1,3.9
		c7.6,2.7,15.1,6.2,23,8.1c9.8,2.4,19.1,2.6,28.9-2.9c16.7-9.4,35.2-11.7,53.8-5c4.4,1.6,8.4,4.6,12,7.7c1.9,1.6,3.5,3.1,5.9,3.9
		c20.3,6.9,32.2,23.8,35.1,46.8c-6.2-15.3-13.6-28.6-27.7-37c0.2,2.2,0.4,5.4,1.7,5.9c5.3,2.3,8.3,6.3,10.4,11.3
		c3.6,8.9,5.2,18.1,4.7,27.7c-0.9,17.1-6.9,31.7-20.5,42.7c-10.6,8.5-22.6,13.9-35.8,16.8c-9.4,2.1-13.6-0.3-17.3-8.9
		c-2.6,0.1-5.2,0.7-7.6,0.3c-6.1-0.9-10-5.1-12.4-10.2c-8.3-17.6-7.2-34.8,3.7-51c1.7-2.6,4.3-4.8,6.9-6.6c9-6.3,23.3-6.4,28.6,7.4
		c0.1,0.4,0.5,0.6,0.8,0.9c8.2-4.4,9.9-3.9,13.8,4.3c6.4,13.4,2.3,31-18.5,32c-0.9,0-1.7,0.1-2.6,0.2c-2.6,0.2-3.8-1.1-3.7-3.6
		c0.1-2.2,0.4-4.5,0.3-6.7c-0.2-3.8-0.9-7.5-3.6-10.6c-4.7,6.1-4.9,14.4-0.7,21.6c4,6.8,9.7,9,17.2,6.7c12-3.7,20.7-17.4,18.4-30.2
		c-2.8-15.7-12.4-26.5-26.8-33.1c-2.7-1.2-6.1-1.3-9.1-1.2c-19.4,0.6-42,25.1-37.8,47.5c0.7,4,1.6,8,2.8,11.9
		c1.3,4.2,3.1,8.3,4.7,12.4c-1.8-2.4-3.4-5-4.6-7.7c-7.5-17.4-8-34.1,4.7-49.6c6.2-7.6,13.7-13.6,23.4-16.3
		c13.9-3.9,35,4.8,43.6,18.1c7.1,11,8.1,22.1,2.1,33.8c-3.4,6.7-8.5,12-14.5,16.6c-5,3.9-10.3,4.6-16,2.6
		c-7.4-2.6-12.7-7.5-15.5-14.8c-3.8-9.9,1.3-20,11.4-23c5.5-1.6,10.3,0,12.5,4.4c0.4,0.9,0.4,2,0.5,3c-4.8-6.1-8.6-7.3-14.4-4.1
		c5.7,4.8,7.6,11.2,7.8,18.2c4.4,0.6,7.8-0.8,10.8-3.4c7.5-6.6,8.5-17.9,2.5-26.3c-1.1-1.6-2.3-2.3-4.3-1.6
		C714.7,646.2,712.2,646.6,709.8,647.1z M29.9,644.7c-0.2-0.5-0.3-0.6-0.3-0.7c3.6-22.1,14.2-38.6,36.4-46c1.1-0.4,2.5-0.7,3-1.6
		c4.9-7.2,12.5-10,20.4-11.6c18.9-3.9,36.4,0.3,52.8,9.9c1.6,0.9,3.5,2.1,5.2,2.1c14.6,0,28.5-3.3,41.4-10.4c0.7-0.4,1.6-1.4,1.6-2
		c-0.2-2.7-0.7-5.4-1.1-7.8c-4,0.2-7.6,0.8-11.1,0.6c-13.1-0.8-24.2-6.6-34.2-14.4c-8.1-6.4-15.4-13.9-23.1-20.9
		c-0.8-0.7-2.4-1.7-3.1-1.4c-6.9,2.9-13.2,6.8-17.1,13.5c-1.9,3.2-3.4,3.6-6.6,1.2c-6-4.4-12.4-5-19.1-1.8c-2.8,1.3-5.5,2.9-8.1,4.6
		c-18.2,11.6-31.4,27.7-42.4,45.9c-1.4,2.3-1.7,5.9-1.1,8.7c0.7,3,0,5.3-1.2,7.9c-10.3,22-12.5,44.6-0.1,66.2
		c19.8,34.3,52.3,44.7,88.6,38.5c0.1-1.1,0.3-2.2,0.5-3.9c2.3,3.3,4.7,3,7.4,1.9c4.2-1.8,8.6-3.3,12.8-5.3c14.7-7,27.1-16.6,33.9-32
		c6.1-13.7,6.7-28.1,4.4-42.6c-0.5-3.5-2.1-7-4-10c-3.3-5.4-8.7-7.6-14.8-7.9c-0.2-0.4-0.2-0.4-0.2-0.5c0.1-1,0.2-1.9,0.3-2.9
		c1.5-8.5-0.7-14.7-9-19.1c-11.9-6.4-24-10.8-37.7-10.3c-12.7,0.4-24.6,3.3-34.3,12.3c-5.2,4.9-9.5,10-7.1,18.6
		c-2.9-0.7-5.1-1.2-7.3-1.7c-0.1,0.2-0.4,0.4-0.5,0.6c-10.8,22.8-9.6,44.5,6.4,64.6c6.9,8.8,14.7,16.5,25.9,19.7
		c8.5,2.5,16.7,2.4,23.5-4.1c2.1-2,4.2-2.8,7-3c9.2-0.6,15.1-6.4,15.8-15.5c0.2-3.1,0.2-6.2-0.1-9.3c-1-12.7-5.2-23.7-15.5-32
		c-8.3-6.6-15.9-6.9-21.2,4.6c-2.5-0.6-5.1-1.4-7.7-1.7c-1-0.1-2.6,0.4-3.2,1.2c-4.6,6.2-5.8,13-2.7,20.3c2.9,6.8,9.1,10.7,15.5,9.6
		c0.1-6.9,2.1-13.2,7.7-17.9c-6-3.2-9.8-2-14,4.3c-0.2-0.9-0.4-2,0-2.8c1.5-3.3,4.1-5.2,7.8-5.4c5.3-0.3,9.6,2.1,13.1,5.8
		c5.9,6.1,5.9,15.4,0.2,23.3c-8.5,11.8-21.1,13.4-32,3.9c-1.4-1.2-2.7-2.4-4-3.8c-7.9-8.9-12.9-18.8-10.5-31.1
		c3.9-20.4,26.1-32.7,42.8-31.7c16.4,1,27.4,11.1,34.6,24.3c9.3,17.1,5.4,34.2-4.7,50.1c1.4-4.1,3-8.1,4.5-12.2
		c9.6-25.9-3.7-45.9-22.3-55.9c-8.6-4.6-17.7-5.8-26.7-0.2c-8.2,5.1-14.6,12-18.8,20.7c-6.8,13.9-3,29.1,9.1,37.4
		c11.1,7.6,22.1,3.7,25.7-9.2c0.4-1.5,0.7-3.2,0.8-4.7c0-4.1-1-7.9-3.7-11.7c-3.2,4.5-3.9,9.2-3.6,14c0.4,7.7,0.3,7.9-7.4,7
		c-6.7-0.8-12.9-2.7-16.7-8.9c-5.3-8.7-3.5-22.1,3.8-29.2c1.7-1.7,3.4-1.9,5.4-0.5c1.3,0.9,2.8,1.7,4.2,2.6
		c5.3-10.1,9.9-13.1,19-12.3c5.5,0.5,10.3,3,14.1,7c14.3,15.1,15.9,41.1,4.6,57.9c-2.5,3.8-6.1,6.5-10.7,7c-2.4,0.2-4.8-0.3-7.2-0.6
		c-3.2,8.2-6.3,10.1-15.2,9.3c-1-0.1-2-0.1-2.9-0.5c-6.3-2.2-12.7-4-18.7-6.6c-38.8-16.9-42.4-55-32.1-80.5
		c1.7-4.2,4.1-8.1,8.4-10.2c3.8-1.9,4.1-2.4,3.2-7.3C43.2,616.7,35.8,629.9,29.9,644.7z M377.9,832.1c-0.3,0.1-0.6,0.1-0.9,0.2
		c-0.3,1.7-0.9,3.4-0.7,5.1c1,9.2,12,19.3,22.2,20.5c8.2,1,15.4-1.9,22.3-5.8c2.2-1.2,3.4-2.7,3.1-5.3c-0.3-2.2,0.7-3.3,2.7-4.3
		c6.2-3.1,9.3-8.9,11.3-15.1c2.2-6.8,0.9-13.8-0.4-20.7c-1.5-8.1-4.2-15.7-9.9-22c-1.5-1.6-2.7-2.1-4.6-0.8c-1.6,1.1-3.3,1.9-5.4,3
		c-0.3-5-0.6-9.5-0.8-13.9c-2.1,0-3.8,0.1-5.5,0c-1.7-0.1-3.4-0.3-5.1-0.7c-22.1-5.2-42.2-1.3-60.6,12.3c-4.9,3.6-7.3,7-4.7,12.8
		c0.1,0.3,0,0.6,0,1.5c-1.2-0.1-2.3-0.1-3.2-0.4c-1-0.3-2-0.9-3.4-1.5c-0.4,25.2,3.2,48.9,15,70.9c1.3,2.4,2.2,5.1,5.7,5.3
		c2.7,0.1,5.3,0.6,8.3,1c0,1.3,0.1,3.3,0,5.3c-0.2,2.2,0.6,3.6,2.6,4.6c4.6,2,9.1,4.5,13.8,6.2c9.3,3.5,19,2.9,28.7,2.2
		c25.2-1.9,46-12.1,61.3-32.6c2.4-3.3,4.1-6.3,2.4-10.5c-1-2.4,0.7-4.7,2.7-5c6.3-0.8,8.3-5.3,8.7-10.4c0.6-8,1-16.1,0.4-24.1
		c-2-24.1-12.5-44.6-28-62.7c-5-5.9-10.6-11.4-16.1-17.4c12.5,5.3,22,13.6,29.5,24.4c0.2-0.9,0.2-1.7-0.1-2.3
		c-1.1-2.4-2.1-4.9-3.5-7.2c-6-9.7-15.1-16.6-23.1-24.1c0.1-1,0.2-1.9,0.2-2.7c-1,0.1-1.9,0-2.9,0.3c-5.2,1.4-10.4,3-15.7,4.1
		c-1.4,0.3-3-0.8-4.6-1.2c-2.5-0.5-5-1.4-7.4-1.1c-2.2,0.3-2.8-0.3-3.4-2.1c-0.5-1.4-1.2-2.7-2.2-5c-2,3.9-3.6,6.8-5.1,9.7
		c-3.5-1.4-6.6-1-9.7,0.8c-1.3,0.7-3.2,1.1-4.6,0.9c-4.7-1-9.4-2.3-14-3.5c-1.3-0.3-2.6-1.3-3.8-1.1c-4.4,0.8-8.7,0.6-13.1-0.5
		c-0.8-0.2-2.3,0.3-2.8,0.9c-2.2,3-4.2,6.2-6.7,10.1c1,0.6,1.9,1.3,2.9,1.9c6.3,4.2,12.3,9.4,19.1,12.3c13,5.6,26.4,10.1,39.9,14.5
		c15.2,5,28.8,12.4,39.6,24.2c9.3,10.1,15.2,21.9,13.9,35.8c-1.6,16.8-9,31-22.4,41.6c-7.4,5.9-16,8.9-25.3,10.1
		c8.2-3,15.3-7.8,21.8-13.4c9.8-8.4,17.9-17.9,18.9-31.4c1.5-20.6-5.8-37.6-22.4-50.3c-3.8-2.9-8.1-5.3-12.8-8.4
		c0.3,6,0.6,10.8,0.9,16.2c3.5-2.4,6.5-4.4,9.5-6.4c9.9,9.2,14.8,23.3,13.2,38.3c-1.3,12.3-4.5,23.7-17.2,29.6
		c-0.5,0.2-1,1.4-0.9,2.1c0.1,0.5,1.1,0.9,1.7,1.3c-10.5,12.6-29.6,15.9-42.7,7.4c-6.8-4.3-15-17.6-13.2-21.3
		c0.8-0.5,1.6-0.9,2.6-1.5c-2.3-7.2-1.7-14.1,1.6-20.7c1-1.9,2.7-4,4.7-4.9c6.7-2.8,13.8-4.3,21.1-3.8c1.4,0.1,3,0.3,4,1.1
		c5,4.4,10.1,8.6,11.9,15.6c2.8,10.8-5.8,20.7-17,18.8c1.9-0.4,3.4-0.7,5.1-1c-3.1-1-5.8-1.9-9.4-3.1c0.8,1.8,1.4,3.1,2,4.4
		c-0.1,0.1-0.3,0.3-0.4,0.4c-1.7-1.3-3.4-2.6-4.6-3.5c0.9-5.6,1.8-10.6,2.6-15.6c1,0.8,1.7,1.9,1.9,3.1c0.2,1.2,0,2.6,0.1,3.9
		c0.5,6.7,3.4,9.2,10.1,8.4c1.4-0.2,2.8-1.3,4-2.2c4.4-3.3,2.6-8,1.7-11.9c-0.7-3.1-3.3-5.8-5.3-8.6c-3.6-5-9.2-6-14.8-6.3
		C383.2,807,371.3,821.2,377.9,832.1z M151,148.9c0.2,0.2,0.4,0.4,0.7,0.5c1-0.7,2-1.4,3-2.1c13.3-10.7,26.3-21.7,40-31.9
		c32.3-24.1,67-44,105-57.8c63.8-23.1,128.1-25,193-5c33.9,10.4,65.2,26.3,94.8,45.5c22.4,14.5,43.4,30.7,63.6,48.1
		c1.5,1.3,3.2,2.6,4.8,3.9c0.2-0.2,0.4-0.4,0.6-0.5c-0.4-0.8-0.7-1.7-1.2-2.4c-9.1-14.4-19.4-27.7-31.1-40.1
		c-28.8-30.4-63.4-52-102.4-66.7c-26.7-10.1-54.3-16.7-82.5-20.7c-17.3-2.4-34.5-4.8-52.2-2.6c-37.5,4.6-74.3,12.2-109.4,26.4
		c-52,21.1-93.9,54.5-124.5,101.8C152.3,146.3,151.7,147.7,151,148.9z M139.4,440.6c-0.4-0.1-0.7-0.3-1-0.2
		c-14.5,2.4-28.4,6.5-41.6,13c-0.8,0.4-1.2,1.7-1.4,2.7c-0.9,4.8-1.4,9.7-2.5,14.5c-0.7,2.9-2.5,3.3-5,1.6c-1.3-0.9-2.8-1.7-4.2-2.2
		c-4-1.4-6-0.8-8.6,2.5c-11.3,14.3-21.4,29.2-28.8,45.9c-7,15.9-11.2,32.4-9.9,50c0.1,1.2,0.3,2.3,0.4,3.6c0.7-0.3,0.8-0.3,0.9-0.4
		c2.1-4.8,4-9.7,6.2-14.4c10.6-23.1,25.9-41.8,49.3-53.1c6.4-3.1,9-2.8,13.9,2c6.4-9.7,22.2-15.4,30.4-10.2c-3.4,1-6.2,2-9,2.5
		c-9.6,2-15.7,7.4-17.5,17.3c-0.2,1.1-1.2,2.1-2.1,3.5c-2.1-3.2-3.7-5.9-5.6-8.3c-2.2-2.9-3.7-2.7-6,0.1c-0.6,0.7-1.4,1.3-2.2,1.8
		c-3.2,2.2-6.5,4.2-9.6,6.4c-13.4,9.4-26,19.6-35.6,33.2c-3.5,5-6.5,10.2-8.1,16.1c0.5,0.4,0.9,0.8,1.4,1.2c0.5-1.1,0.9-2.3,1.6-3.2
		c9.1-10.2,19.9-17.9,33.2-21.7c0.8-0.2,1.6-0.7,2.3-1.1c4.4-2.2,7.6-1.7,11,2c1.8,2,3.3,4.4,5.1,6.9c4.4-12.2,13.8-18.8,25-23.9
		c0.5,1,0.9,1.9,1.3,2.8c2.4,5.2,6.1,9.1,11.3,11.3c11.9,5.1,24,3.5,37,1.6c-1.3-1-1.9-1.5-2.6-1.9c-10.2-6.5-18-15.2-23.4-26
		c-9-18-10.5-37.2-8.3-56.8C137.4,453.3,138.5,447,139.4,440.6z M579.2,784.2c1.6,0.4,3.1,0.8,4.5,1.2c2.9,0.8,4.2-0.4,4.4-3.3
		c0.1-2,0.4-4.1,0.7-6.1c0.6-5,1.2-9.9,1.8-14.9c6.9,0.8,18.8,5.5,26.6,11c2.8,2,5.3,1.6,9,0.9c-1.7-4.3-2.4-9-5-12.2
		c-13.3-16.9-27.1-33.5-40.8-50.2c-5.9-7.2-11.8-14.4-17.7-21.7c-3.3,1.7-6.8,2.8-9.3,5.1c-2.2,2-4,2.4-6.5,1.6
		c-1.3-0.4-2.7-0.5-3.6-0.7c-1.2,1.3-1.9,2.7-2.9,3c-3.5,0.9-7.1,1.2-10.6,2.1c-4.5,1.1-9.1,2.2-12.6,6.6c6.8-0.9,9.5,3,11,8.1
		c1.2,4.1,2,8.3,3.1,12.5c0.4,1.4,0.8,2.9,1.6,4.1c11.8,16.9,23.8,33.6,35.4,50.6c2.7,4,6.1,4.8,10.4,5.2
		C578.9,785.8,579.1,784.7,579.2,784.2z M489.1,826.2c0.6-0.5,1.3-1.1,1.9-1.7c14.1-15.3,24.9-32.8,32.5-52.1
		c3.2-8.3,1.8-13.7-6.1-17.9c2-2.9,4.1-5.8,5.9-8.8c7.3-11.8,6.7-21.9-1.9-32.6c-1.4-1.8-2.9-3.5-4.7-4.9c-1-0.8-2.7-1.5-3.9-1.3
		c-4.6,0.7-9.2,1.6-13.7,2.8c-5.8,1.6-11.4-1.2-12.8-7c-0.5-2-0.6-4-0.7-6c-0.6-8.7-1.1-17.3-1.9-26c-0.5-5.2-4.4-8.7-9.4-8.8
		c-4.9,0-8.9,3.5-9.3,8.8c-0.2,2.6,0.1,5.4,0.7,7.9c0.7,3.1,2.2,6.1,2.8,9.2c1.3,6.5,2.6,13,3.1,19.6c0.4,5.3-2.2,6.9-7.6,7.7
		c-5.1,0.7-10.1,2.2-15.5,3.5c4.4,3.2,8.6,5.8,12.4,8.9c11.9,9.8,18.4,22.1,16.9,38c-0.1,1,0.2,2.2,0.6,3c4.6,9,7.6,18.6,9.7,28.5
		c0.3,1.6,0.8,3.2,1.2,4.8c0.5-0.1,0.8-0.1,0.9-0.2c5.9-4.5,7-11.2,8.2-17.9c0.1-0.4-0.5-1.1-1-1.4c-3.4-2.3-3.8-5.5-0.9-8.3
		c2.8-2.8,5.8-5.5,8.5-8.4c0.8-0.9,1.5-2.4,1.6-3.6c0.2-16.9-3.2-32.5-17.5-43.6c-2.5-1.9-2.2-3.2,0.6-4.8c-0.8-1.2-1.7-2.4-2.5-3.6
		c0.2-0.2,0.5-0.4,0.7-0.6c2.7,2.4,5.5,4.6,8,7.2c10.7,10.6,16.8,23.3,18,38.4c0.1,1.5,0.9,2.9,1.6,5.3c-1.7,4.8-5.1,9.7-9.4,14
		c-0.9,0.9-1.1,2.4-1.6,3.7c1.1-0.1,2.2-0.2,3.8-0.3c-0.3,0.9-0.5,1.9-0.8,2.8c-3.7,9.7-9.2,18.1-16.5,25.4
		c-0.8,0.8-1.9,1.9-1.9,2.8C489,814.6,489.1,820.3,489.1,826.2z M221.2,834c-1,1.2-1.6,1.9-2,2.6c-14,21.6-28,43.2-41.9,64.8
		c-2.4,3.8-5.4,6.7-9.5,8.3c-3.2,1.3-6.4,2.5-9.7,3.3c-3.6,0.9-7,1.6-9.3,4.9c-0.8,1.2-2.4,1.8-3.6,2.7c-2.7,2.2-5.7,4.1-7.9,6.7
		c-4.8,5.7-9.1,11.8-13.3,17.4c-0.3-3.3,1.4-6.5,3.9-9.5c3.7-4.3,6.9-9,10.6-13.4c1.5-1.8,3.5-3.5,5.6-4.6
		c8.3-4.7,16.8-9.1,25.1-13.7c1.5-0.8,2.9-2.3,3.7-3.7c14.4-24,28.8-48,43.2-72c1.2-2,1.1-3.4,0.2-5.3
		c-8.1-15.6-22.2-20.4-38.4-18.4c-0.9,0.1-1.9,1-2.4,1.7c-4.3,5.8-8.4,11.6-12.6,17.5c-0.4,0.6-0.4,1.4-0.6,2.1
		c-0.5-0.4-1-0.9-1.5-1.3c0.5-1,1-1.9,1.5-2.9c2.9-4.9,5.9-9.7,8.8-14.6c0.5-0.9,0.5-2.2,0.7-3.3c-0.9,0.6-2.1,1-2.7,1.9
		c-6.6,9.8-13,19.7-19.5,29.5c-2.7,4.1-5.4,8.1-8.1,12.2c6.1-11.8,12.8-23.3,19.4-34.8c1.1-1.9,1.6-4.1,2.4-6.2
		c-0.5-0.3-1-0.6-1.6-0.9c-1.2,1.4-2.6,2.7-3.5,4.3c-11,19.5-22,39-32.8,58.7c-0.9,1.7-1.3,4.1-1,6c1.7,10.8,3.5,21.6,5.5,32.4
		c0.5,2.9,0.1,5.2-1.6,7.7c-7.9,11.5-15.6,23.1-23.3,34.7c-1.1,1.6-2,3.4-2.4,5.2c-0.3,1.5,0.2,3.2,0.4,4.9c2-5.8,4.4-8.8,8.5-8.7
		c1.8,0,3.9,0.7,5.3,1.7c1.3,1,2,2.8,3.2,4.5c0.8-1.1,1.7-2.3,2.6-3.5c6.7-9.3,13.4-18.6,20.3-27.8c0.9-1.3,2.5-2.4,4-2.9
		c7-2.5,14-4.7,21-7.2c1.5-0.5,3.2-1.4,4.2-2.6c18.6-20.9,32.2-45.2,47.6-68.3C221.5,841.3,221.8,838.1,221.2,834z M770,572.4
		c0.1-1,0.3-1.7,0.3-2.4c1.3-12.5-0.4-24.6-4-36.6c-7.2-23.5-20.5-43.5-35.6-62.5c-1.8-2.3-4-1.8-6.1-1.4c-1.9,0.4-3.8,1.4-5.5,2.5
		c-2.8,1.8-4.4,1.5-5.2-1.6c-1.1-4.5-2-9-2.2-13.6c-0.1-2.4-0.9-3.4-2.8-4.3c-12-5.5-24.4-9.4-37.4-11.7c-1.3-0.2-2.6-0.4-4.3-0.6
		c3.7,18,5.4,35.6,2.3,53.1c12.2-0.1,23.2,1.5,30.4,12.6c4.6-4.6,7.2-5,13.5-2c0.6,0.3,1.1,0.6,1.7,0.9c18.3,9.2,32,23.2,41.9,41
		C761.8,554.2,765.6,563.2,770,572.4z M306.7,711.2c-1.9,4.4-2,8.5,1.1,12.6c0.9,1.2,1,3.3,0.7,4.9c-0.5,2.5-2.1,4.7-2.7,7.1
		c-4.9,20.5-2.4,40.7,3.7,60.5c3,9.8,7.2,19.1,14,26.9c1.5,1.7,3.2,3.1,4.8,4.7c-0.4-12.2,0.6-23.7,2.8-35.2
		c1.7,0.2,2.9,0.4,3.9,0.5c-8-27.7-0.9-52.4,14-75.9c-0.4-0.1-0.8-0.2-1.2-0.3c-5.7-0.5-7.8-2.4-7.9-8c-0.1-3.3,0-6.7,0.7-9.9
		c1.4-6.2,3.4-12.2,4.9-18.3c0.7-2.9,1.3-5.9,1.1-8.8c-0.4-6.1-4.2-9.7-9.5-9.6c-5.2,0.1-8.8,3.9-9.2,10c-0.7,9.3-1.3,18.6-1.9,27.9
		c-0.5,7.2-2.7,10.3-9.6,11.6C313.3,712.6,310.1,711.5,306.7,711.2z M495.9,446.3c-0.2-1.4-0.2-2.4-0.4-3.3
		c-4.8-33.3-9.6-66.7-14.4-100c-0.3-2.3,0.1-3.6,2.3-4.8c7.2-4,14.3-8.2,21.4-12.5c2.5-1.5,4.3-1.6,6.9-0.2
		c21.5,11.7,43,23.2,64.6,34.8c1,0.5,2,1,3.5,1.7c-0.8-5.7-1.5-10.8-2.1-15.9c-0.2-2.2-1.2-3.3-3.2-4.2c-21.1-9.2-43-15.9-65.4-21.2
		c-1.3-0.3-3-0.1-4.3,0.4c-10.2,3.9-20.4,7.9-30.5,12c-1.1,0.4-2.3,2-2.4,3.1c-1.6,21.5-1.2,42.9,3.1,64.1c1,4.8,2.2,9.6,3.4,14.3
		c-0.3,0.1-0.6,0.2-0.9,0.3c-1.3-3.8-3.2-7.5-3.9-11.4c-2.6-16.8-5-33.7-7.3-50.6c-0.8-5.7-1.1-11.5-1.6-17.6
		c-1.9,0.4-3.6,0.9-5.2,1.1c-1.7,0.2-2.3,1-2.3,2.7c-0.5,18.1-0.1,36.1,3.5,53.9c2.8,14.1,7.4,27.6,16.6,39
		C482.2,438.1,488.2,443,495.9,446.3z M310.9,446.5c2-1,3.4-1.7,4.8-2.5c11-6.3,18.3-15.8,23.3-27.1c10.9-25.1,11.6-51.7,10.8-78.4
		c0-0.6-0.7-1.6-1.3-1.8c-1.9-0.6-3.9-0.9-6-1.3c-0.2,0.9-0.4,1.4-0.4,1.9c-1.1,11.4-1.8,22.9-3.4,34.3c-1.7,12.3-4.2,24.5-6.6,36.7
		c-0.4,2.3-1.9,4.4-2.9,6.6c-0.5-0.4-0.6-0.7-0.5-0.9c7.3-25.2,8.3-50.9,6.7-76.9c-0.1-2.3-0.9-3.5-3.2-4.4
		c-9.9-3.7-19.7-7.8-29.7-11.5c-1.5-0.6-3.4-0.8-4.9-0.4c-20.8,5-41.1,11.3-60.9,19.3c-5,2-8,4.4-8,10.2c0,3.7-0.9,7.5-1.4,11.7
		c1.5-0.7,2.3-1.1,3.2-1.6c21.8-11.7,43.6-23.5,65.4-35.3c2-1.1,3.5-1.1,5.5,0.1c7.4,4.5,14.9,8.9,22.5,13.2
		c1.9,1.1,2.4,2.3,2.1,4.3c-4,27.5-8,55-11.9,82.5C312.9,432.1,311.9,439,310.9,446.5z M588.2,669.4c2.1,0.7,3.7,0.7,4.6,1.6
		c13,11.6,25.8,23.3,38.7,34.9c10,9.1,20,18.1,30.1,27.2c0.7,0.6,2.1,1.4,2.6,1.1c4.7-2.6,9.3-5.3,14-8.1c-0.4-0.5-0.4-0.6-0.5-0.7
		c-1.2-0.4-2.4-0.9-3.6-1.3c-11.1-4-21-9.8-28.8-18.7c-10-11.3-14.6-24.8-16.7-39.4c-0.3-2.1-1.5-4.1-2.7-5.9
		c-3.4-5.2-7.6-9.9-10.5-15.3c-8.2-15.1-9.5-31.4-6.9-48.2c0.2-1.3,0.3-2.5,0.5-3.8c-0.4-0.2-0.9-0.3-1.3-0.5
		c-4.9,7.5-10.5,14.7-14.6,22.6c-4.7,9-8.1,18.6-12,28c-0.3,0.7-0.1,1.7,0.2,2.4C585,653.2,587.7,661.4,588.2,669.4z M502.8,319.8
		c-1-0.6-1.2-0.9-1.5-1c-20.5-5.1-41.2-9.4-62.4-10.4c-15.9-0.8-31.9-0.4-47.9-0.7c-28.2-0.5-55.8,3.9-83,10.6
		c-1.1,0.3-2.1,0.6-3.1,0.9c10.4,3.4,20.7,6.5,31.1,8.8c7.3,1.6,14.8,3.1,22.2,3.2c13.8,0.2,24-6.2,29.6-19.2c0.3-0.7,0.7-1.5,1-2.2
		c0.3,0,0.7,0,1,0c0.2,0.9,0.6,1.8,0.4,2.6c-0.2,1.1-0.8,2.2-1.2,3.3c-2.2,5.8-2.2,5.9,2.6,9.5c0.8,0.6,2.1,1,3.2,1.1
		c2.3,0.2,4.7,0.3,7.1,0.3c6.5-0.2,13.4,1.1,18.3-4.9c0.1-0.1,0.2-0.3,0.2-0.5c-1.1-2.9-2.3-5.8-3.3-8.8c-0.2-0.8,0.3-1.8,0.6-2.7
		c0.3,0,0.6,0.1,0.9,0.1c0.4,1,0.9,1.9,1.3,2.9c4.7,10.6,12.8,16.9,24.3,17.9c5.8,0.5,11.9,0.6,17.6-0.6
		C475.3,327.3,488.6,323.4,502.8,319.8z M198.9,593.3c-0.2,0.1-0.4,0.2-0.7,0.3c0.3,2.8,0.7,5.6,1,8.4c2.1,22.3-3.4,42.1-18.8,58.8
		c-1,1.1-1.8,2.7-2,4.2c-2.5,19.9-9.9,37-26.5,49.2c-0.4,0.3-0.6,0.8-1.5,2.1c5.1,1.5,9.8,2.8,14.5,4.3c1.6,0.5,2.7,0.3,3.8-1.1
		c7.2-8.8,14.5-17.5,21.9-26.1c12-13.9,24.1-27.7,36.1-41.6c1.2-1.4,2.1-3.2,3.1-4.8c-2.5-1.4-4.6-4.4-5.9-8.4
		c-4.8-15.4-11.9-29.6-22.1-42.2C201,595.4,199.9,594.4,198.9,593.3z M764.5,568.8c0.2-0.1,0.4-0.3,0.7-0.4c-0.3-1-0.5-2-1-2.9
		c-3.8-6.3-7-13.1-11.6-18.8c-11.1-13.9-25.5-24.1-40.3-33.7c-1-0.6-2-1.3-2.7-2.2c-2.3-2.8-3.7-3-6-0.1c-1.9,2.4-3.5,5.1-5.7,8.5
		c-0.8-1.7-1.8-2.9-2-4.3c-1.8-8.6-7-14-15.5-16.3c-3.7-1-7.3-2.4-11.2-3.7c-4,20.5-14.2,37.5-32.7,49.1c3,0.8,6,1.3,8.9,1.5
		c7.7,0.7,15.4,0.9,23-1.2c8.4-2.3,14.1-7.5,17.3-16.3c4.8,3.1,9.5,5.7,13.7,8.8c5.2,3.9,8.9,9.2,11.3,15.8c0.9-1.5,1.5-2.4,2.1-3.4
		c4-6.6,9.2-9.4,15.3-5c0.3,0.2,0.8,0.3,1.2,0.4c12.7,3.7,23.1,11,32,20.6C762.4,566.6,763.4,567.7,764.5,568.8z M654,846.9
		c-3.2-8.4-6.4-16.7-9.6-25c-1.7-4.3-4.5-5-7.4-1.3c-1.3,1.6-2.3,4.1-2.1,6.1c1.3,14.9,4.7,29.4,10.8,43.2c1,2.3,2,4.5,3.3,7.6
		c-1-0.9-1.3-1.1-1.5-1.3c-0.5-0.8-1.1-1.6-1.6-2.4c-6.5-12.6-11.9-25.6-14.2-39.7c-0.7-4.3,0-8.3,2.2-12.1c3-5.3,6.8-6,11.7-1.5
		c-0.3-6.1-0.9-11.9-0.7-17.6c0.2-5.7-2.6-9.2-7.2-11.5c-3.2-1.6-6.7-2.9-10.3-3.5c-5.7-0.9-11.1,0-14.2,5.7
		c-3.6,6.5-5.1,13.9-3.3,20.8c7.4,29.5,20.2,56.4,39.7,80c0.5,0.6,1.1,1,2.1,1.9c0-1.8-0.2-2.9,0-4c0.3-1.3,0.6-3,1.5-3.6
		c0.9-0.6,2.8-0.5,4-0.1c2.2,0.8,4.3,2.1,6.5,3.1c0.2-0.2,0.4-0.5,0.6-0.7c-0.6-1.1-1.2-2.2-1.7-3.2c-1.8-3.5-4.1-6.9-5.4-10.6
		c-2.4-6.7-4.4-13.6-6.5-20.5C649,851.5,649.5,850.2,654,846.9z M252.4,808.5c0.8-3.3,1.2-5.7,2-7.9c2.3-6.3,3.9-13,9.5-17.5
		c2.1-1.7,1-3.7-0.3-5.4c-15-18.5-34.3-30.1-57.7-34.7c-14.8-2.9-26.2,9.2-30,21.4C208.3,766.4,235.9,777.1,252.4,808.5z
		 M584.7,345.9c0,5.2,0.1,10.2-0.1,15.2c-0.1,2.8,0.7,4.7,3.5,5.6c2.3,0.7,2.9,2.3,3,4.6c0,7.3,0.2,14.6,0.5,21.9
		c0.1,2.7-0.7,4.2-3.1,5.5c-28.9,15.5-57.7,31.2-86.6,46.8c-1,0.5-1.9,1.1-3.5,2c1.6,0.5,2.3,0.9,3.1,1c18.2,2.7,36.2,2.7,53.8-3.3
		c8.1-2.8,16.1-5.9,22.5-12.1c6.4-6.3,10.2-14,12.6-22.5c5.5-19.3,4.8-39.1,3.6-58.8c0-0.7-0.6-1.7-1.2-2
		C590.1,348.3,587.4,347.1,584.7,345.9z M222.9,345.5c-2.6,1.2-4.6,2.4-6.8,3.2c-2.3,0.8-3.4,2.2-3.3,4.7c0.1,3.1-0.3,6.2-0.4,9.3
		c-0.5,14.9-0.3,29.8,3.3,44.5c3.9,16,12.1,28.4,28.2,35.1c19.9,8.3,40.4,9.2,61.3,6.2c0.9-0.1,1.7-0.5,3.1-1
		c-1.2-0.8-1.9-1.3-2.6-1.7c-6.6-3.6-13.2-7.2-19.8-10.7c-22.6-12.2-45.3-24.5-67.9-36.7c-2.1-1.1-2.9-2.3-2.7-4.7
		c0.4-7.4,0.5-14.8,0.5-22.2c0-2.5,0.8-3.9,3-4.9c1.3-0.6,3-1.9,3.1-3.1C222.5,357.8,222.6,352,222.9,345.5z M672.7,873.6
		c0,2.8,0,4.7,0,6.6c0.1,4.6-1.3,6.1-5.9,5.5c0.5,3.8,1,7.6,1.6,12.1c-4.7-2.8-8.9-5.3-13.5-8c0.4,4.4,0.7,8.2,1,12.1
		c-2.2,0-3.9,0-5.4,0c-2.7,4.4,1.5,7,2.6,10.6c-1.9,0.6-3.6,1.1-6,1.8c19.1,14.5,37.6,28.6,56.8,43.2c-0.4-2-0.6-3-0.8-4
		c-4.4-18-9.1-36-12.9-54.1c-2.1-9.8-7-17.3-14.3-23.7C675.1,875,674.1,874.5,672.7,873.6z M630.6,874.7c0.3-0.2,0.5-0.3,0.8-0.5
		c-0.5-1.3-1-2.7-1.6-4c-5.6-11.7-11.5-23.3-16.8-35.1c-3.7-8.1-9.7-13.8-17.4-17.7c-17.3-8.9-34.8,1.8-34.4,20.9
		c0,1.1,0.5,2.5,1.3,3.3c5.6,5.4,11.2,10.6,16.9,15.8c0.8,0.7,1.7,1.3,2.9,2.2c-0.7-4.5-1.7-8.4-1.9-12.3c-0.3-5.8,2.3-7.7,8-6.8
		c6,1,10.7,4.4,14.9,8.4c8.3,7.7,16.5,15.6,24.8,23.5C628.8,873.2,629.7,874,630.6,874.7z M517.9,359.5c-5.6,25.8-11,51-16.5,76.3
		c0.4,0.2,0.7,0.3,1.1,0.5c17.3-18.8,34.5-37.5,52-56.5C542,372.8,530.2,366.3,517.9,359.5z M252.4,379.8
		c17.6,19.1,34.8,37.8,52,56.5c0.4-0.2,0.7-0.4,1.1-0.6c-5.5-25.3-10.9-50.5-16.5-76.2C276.7,366.3,264.8,372.9,252.4,379.8z
		 M387.6,717.6c0-0.3,0.1-0.5,0.1-0.8c-0.4-0.3-1-0.5-1.3-0.9c-0.5-0.7-0.9-1.6-1.3-2.4c0.9,0,1.9-0.3,2.7-0.1
		c1.2,0.4,2.2,1.6,3.4,1.8c2.8,0.6,6,1.7,8.5,0.9c3-0.9,3.4-4.1,3.1-7.4c-1.2-12.6-2-25.2-3-37.9c-0.4-5.2-0.6-10.5-3.5-15.2
		c-3-4.9-7.1-5.5-10.6-1c-2.2,2.8-4.3,6.1-5.2,9.5c-3.1,11.8-5.8,23.7-8.3,35.6c-1,4.5-1.1,9.2-1.6,13.4
		C376.8,714.8,382.2,716.2,387.6,717.6z M440.5,711.3c0,0,0.2-0.5,0.1-0.9c-1.3-15.9-4-31.5-9.4-46.5c-1.3-3.6-3.3-7-5.7-10
		c-3.1-3.9-7.6-3.5-10,0.9c-1.6,2.8-2.9,6.1-3.2,9.3c-1.5,14.9-2.6,29.9-3.7,44.9c-0.1,1.2,0.5,2.8,1.3,3.6
		c3.1,2.9,6.9,2.9,10.6,0.6c1.3-0.9,2.8-1.6,4.3-2.1c0.4-0.1,1.3,0.5,1.6,1c0.2,0.2-0.2,1.2-0.6,1.5c-0.7,0.5-1.6,0.8-2.5,1.2
		c0.1,0.3,0.2,0.6,0.4,0.9C429.3,714.2,434.8,712.8,440.5,711.3z M192.8,732.7c1.3,0.3,2.1,0.5,3,0.7c8.7,1.8,17.5,3.2,26,5.6
		c16.5,4.7,30.9,12.7,40.7,27.4c0.1,0.2,0.5,0.3,1.1,0.5c0.6-7.8,0.8-15.5,8.7-20.5c-4.9-4.4-9.3-8.6-14-12.4
		c-9.5-7.6-19.7-13.8-32.2-15C212.9,717.8,202.3,723.3,192.8,732.7z M228.6,808.6c0.6,0,1.5-0.1,2.5-0.2c3.7-0.4,7.1-1.4,8.3-5.4
		c1.2-4.1-0.7-7.2-3.9-9.4c-14.8-10.7-30.8-19-48.7-23c-2.4-0.5-5.1-0.7-7.6-0.3c-3.4,0.4-5.2,2.8-4.1,5.9c1.1,3.1,2.7,6.6,5.2,8.5
		c7.4,5.5,15.1,10.6,23,15.3C210.9,804.4,219,808.1,228.6,808.6z M648,909.2c-0.6-1.4-0.9-2.2-1.3-2.9
		c-7.1-14.1-16.6-26.4-27.1-38.1c-8.1-8.9-18.4-14.9-27.8-22.1c-4.3-3.3-6.3-2.3-6.9,3.1c-0.6,6.2,0.7,12.2,4.8,16.8
		c4.5,5.1,9.8,9.6,15,13.9c12.2,10.1,24.6,20,36.9,30c0.1-0.2,0.1-0.5,0.2-0.7C643.7,909.2,645.6,909.2,648,909.2z M616.1,587.5
		c-3.4,22.6,3.1,58,12.1,66c0.2-0.9,0.4-1.7,0.5-2.6c1.7-8.7,3-17.5,7.1-25.6c0.9-1.7,1.8-2.6,3.9-2.2c2.1,0.4,4.3,0.4,6.4,0.4
		c2.5,0,3.6-1.1,2.7-3.6c-0.5-1.3-0.9-2.7-1.6-3.8c-1.5-2.4-1.4-4.3,1-6.3c2.4-2,4.4-4.5,6.9-7.2
		C640.8,599.9,627.8,595.7,616.1,587.5z M156.7,623.1c4,0,7.4,0.2,10.7-0.1c1.8-0.2,3,0.2,3.5,1.9c2,6.2,4.1,12.4,5.9,18.6
		c0.9,3.2,1.3,6.6,2,9.9c12.4-20.4,14.2-42.5,12.3-66.1c-12,8.5-25.1,12.5-39.2,15.3c2.9,3,5.2,5.7,7.8,8.1c1.4,1.3,1.6,2.5,0.7,4.2
		C159.1,617.2,158.2,619.7,156.7,623.1z M307.4,435.8c0.3,0,0.7,0.1,1,0.1c5.1-31,10.2-62,15.4-93.7c-8.8,4.4-16.6,8.5-24.7,12.2
		c-2.7,1.2-3.2,2.6-2.8,5.4c2.8,18.9,5.5,37.8,8.3,56.7C305.5,422.9,306.5,429.3,307.4,435.8z M483.2,342.2
		c5.2,31.8,10.3,62.7,15.4,93.5c0.9-0.8,1.2-1.5,1.3-2.3c1.9-12.8,3.8-25.7,5.6-38.5c1.7-12,3.5-24,5.1-36c0.2-1.1-0.3-3-1.1-3.5
		C501.1,351.1,492.5,346.9,483.2,342.2z M413.1,765.7c0.1-0.4,0.2-0.8,0.3-1.2c-2.8-1.1-5.5-2.2-8.3-3.3c-11.9-4.8-24-9.3-35.8-14.4
		c-8.4-3.6-16-8.5-22.4-15.5c-0.5,0.7-0.8,1.1-1,1.6c-3.9,8.6-5.3,17.8-6.5,27.1c-0.1,0.6,0,1.4,0.3,1.8c3.6,4.1,5.5,9,5.6,14.6
		c0.7-0.2,1-0.2,1.3-0.4c11.8-8.1,24.7-12.8,39.2-12.3c0.9,0,1.8-1.1,3-1.8C396.5,763,404.8,764.4,413.1,765.7z M70.6,360
		c6.8,3.5,12.9,6.7,19,9.8c0.6,0.3,1.5,0.3,2.2,0.4c7.2,0.3,12.8-3.4,15.8-10.4c3.6-8.3,3.7-17.1,3.5-25.9c0-1-1-2.1-1.7-2.9
		c-5.3-5.2-10.7-10.3-16-15.3c-0.6-0.6-1.4-1.1-2.8-2.2c2.3,9.7,2,18.3-1.8,26.6C85,348.4,78.4,354.3,70.6,360z M716.3,313.9
		c-0.8,0.4-1.3,0.5-1.5,0.7c-6,5.7-12,11.4-17.9,17.1c-0.7,0.7-1.1,2.1-1.1,3.1c0.1,4.5,0.1,9,0.6,13.5c0.7,5.9,2,11.6,6,16.4
		c4.6,5.4,11.3,6.8,17.6,3.7c3.3-1.7,6.7-3.4,10-5.2c1.9-1,3.8-2.1,6.2-3.3c-7.7-5.6-14.2-11.4-18-19.7
		C714.4,331.8,714.2,323.1,716.3,313.9z M323.5,670.8c-1.3-4-3.1-9.2-4.8-14.5c-0.1-0.4-0.5-0.7-0.7-1c-3.2-3.8-7.7-4-10.5,0.2
		c-1.5,2.2-2.1,5.1-3,7.7c-3.4,9.9-6.9,19.8-10.1,29.8c-1.8,5.7-0.5,7.9,5.3,9.5c2,0.6,4.3,0.8,6.3,0.6c1.8-0.2,2.8,0.1,4.2,1.3
		c3.1,3,9.4,1.1,9.9-3C321.2,691.6,322.2,681.9,323.5,670.8z M509.9,434.7c0.2,0.3,0.4,0.6,0.6,0.9c25.5-12.6,51-25.3,77.3-38.3
		c-1.7-0.9-2.6-1.4-3.5-1.9c-7-3.5-14.1-6.9-21-10.5c-2-1-3.1-0.8-4.7,0.7c-15.3,15.5-30.7,30.9-46.1,46.3
		C511.5,432.8,510.7,433.7,509.9,434.7z M219.1,397.2c26.3,13.1,51.9,25.7,77.4,38.4c0.2-0.3,0.4-0.5,0.6-0.8
		c-0.7-0.8-1.3-1.6-2-2.3c-4.4-4.4-8.8-8.8-13.2-13.2c-11.2-11.2-22.4-22.5-33.6-33.7c-0.7-0.7-2.4-1.5-3.1-1.2
		C236.6,388.4,228.2,392.6,219.1,397.2z M507.9,701.8c2.1-0.6,4.5-1.1,6.7-2.1c3.7-1.6,4.4-2.9,3.1-6.8
		c-3.8-11.8-7.7-23.6-11.9-35.3c-2.3-6.3-9.4-7.7-12.3-2.2c-2.7,5-4.9,11-4.9,16.6c-0.1,9,1.8,18.1,2.9,27.1
		c0.5,3.7,6.1,6.5,8.9,4.2C502.7,701.4,504.8,700.7,507.9,701.8z M668.6,876.5c0.5-0.1,0.9-0.2,1.4-0.3c-0.2-2.7-0.1-5.4-0.7-8
		c-2.6-11.3-5.7-22.4-8-33.7c-2.1-10.2-2.9-20.6-0.5-31c1.4-6,4-11.4,9.9-13.8c3.8-1.5,4.4-3.6,3.8-6.9c-0.3-1.7,0-4.2-1-5.1
		c-5-4.4-11.2-6.4-17.1-0.3c-1.4,1.5-2.5,3.2-3.6,4.9c-5.2,7.9-5.3,16.8-4.6,25.8c1.3,16.4,6,32,11.8,47.2
		C662.7,862.4,665.7,869.4,668.6,876.5z M372.5,678.4c-1.1-5.9-2-12.2-3.6-18.4c-1.2-4.7-4.6-5.3-7.6-1.4c-1.7,2.2-3.1,4.6-4.2,7.2
		c-5.7,13.4-9.1,27.4-11.8,41.6c-0.2,0.9,0.9,2.8,1.7,3c2.7,0.7,5.6,0.9,8.3,1.3c1.5,0.2,3.1,0.4,4.4,1.1c4.7,2.6,8.6,0.5,8.9-4.8
		c0.1-1.4,0.1-2.8,0.2-4.2c0.2-6.1-0.1-12.1,2.5-17.9C372.2,683.8,372.1,681.3,372.5,678.4z M439,677.3c0.4,2.7,0.3,5.2,1.3,7.3
		c2.6,5.6,2.3,11.4,2.5,17.3c0,1.4,0.1,2.8,0.1,4.2c0.2,4.8,3,7.1,7.4,5.2c4.2-1.8,8.5-2.2,12.9-2.4c2.5-0.2,3.7-1.2,3-4
		c-3.5-12.3-6.8-24.7-10.6-37c-1.1-3.6-3.3-7-5.6-10c-2.8-3.7-6.3-3-7.5,1.5C441.1,665.4,440.1,671.5,439,677.3z M675.3,790.4
		c-5.7,2-8.8,5.9-10.6,10.8c-3,8.6-3.7,17.4-1.9,26.3c2.7,12.9,5.9,25.7,8.7,38.6c1.2,5.4,5.9,7.2,9.8,11.2
		c-0.4-3.3-0.7-5.5-0.9-7.7c-0.9-10.5-3.3-21-1.8-31.7c0.5-3.4,0.8-6.9,0.6-10.3c-0.3-5.7-1.2-11.3-1.8-16.9
		C676.8,803.9,676.1,797.4,675.3,790.4z M215.9,809.9c0,0.2-0.1,0.4-0.1,0.6c2.6,6.9,5.1,13.9,7.9,20.7c1.5,3.6,2.7,6.9,0,10.4
		c-0.1,0.1,0.1,0.4,0.3,1.4c4.1,0,8.4,0.4,12.6-0.1c8.4-1.1,16.9-9.7,16.9-17.9c0-7-3.9-12.9-8.6-18.3c-4.4,3.2-9,5.5-14.2,5.1
		C225.7,811.5,220.8,810.5,215.9,809.9z M740.4,365.8c-1.6,0.8-2.5,1.1-3.3,1.6c-6.2,3.4-12.3,7-18.6,10.3c-2.6,1.3-3.7,3.2-4.3,5.9
		c-2.3,11,0.8,21,5.9,30.6c0.4,0.7,2,1.1,3,1.1c7,0,14-0.1,20.9-0.1c0.9,0,1.8-0.2,3-0.3C731,398.3,730.4,384.3,740.4,365.8z
		 M60,414.4c0.2,0.3,0.4,0.5,0.6,0.8c8.1,0,16.2,0,24.4-0.1c0.7,0,1.7-0.5,2-1.1c5.1-9.9,8.5-20.3,5.4-31.5c-0.5-1.7-2-3.5-3.5-4.5
		c-3.9-2.6-8.2-4.7-12.3-7c-3.1-1.7-6.2-3.4-9.3-5.1C77.2,384.1,75.1,400.1,60,414.4z M691.6,357.8c-0.5,0.1-0.9,0.1-1.4,0.2
		c-1-6-2-12-3.1-18.2c-3.6,2.7-7.3,5.4-10.9,8.3c-0.6,0.5-0.6,1.7-0.8,2.6c-0.8,4.9-1.7,9.9-2.5,14.8c-0.1,0.8-0.4,1.8-0.1,2.4
		c3.2,7.1,6.8,13.9,13.2,18.7c1.8,1.4,3.4,1.8,5.5,0.5c3.8-2.3,7.9-4.3,11.7-6.7c2.9-1.9,5.4-4.3,8.5-6.9c-2.8-0.9-4.7-1.4-6.6-2.2
		c-6.5-2.9-12.6-6.4-13-14.7c0-0.1-0.2-0.3-0.2-0.4C691.9,356.8,691.7,357.3,691.6,357.8z M119.1,339.4c0.1,8.3-0.9,15.7-5,22.2
		c-4.3,6.7-10.9,9.8-18.6,11.9c0.6,0.8,0.9,1.3,1.3,1.6c6.1,4.1,12.3,8,18.4,12.1c2.2,1.4,3.9,0.9,5.8-0.6
		c6.3-4.8,9.9-11.5,12.9-18.5c0.3-0.8,0-1.8-0.1-2.7c-0.8-4.7-1.6-9.5-2.4-14.2c-0.2-1-0.1-2.5-0.7-3
		C127.2,345.3,123.4,342.6,119.1,339.4z M749.9,424.5c-0.3-0.4-0.6-0.7-0.9-1.1c-8.2,0-16.4,0-24.7,0c-0.7,0-1.5,0.4-2,0.8
		c-5.4,4.5-9.7,19.7-7.2,26.3c1.5,4,3.3,7.9,5.1,11.8c0.3,0.7,1.3,1.5,2.1,1.6c4.1,0.4,8.3,0.5,13,0.8
		C731.1,447.9,737.5,435.1,749.9,424.5z M71.7,464.7c2.1-0.1,3.5-0.5,4.8-0.3c7.5,1.2,11-2.5,13.6-9.3c4.3-11.2,1.9-20.7-4.7-29.9
		c-0.7-1-2.4-1.7-3.7-1.7c-7.7-0.1-15.4,0.1-23.2,0.2c-0.4,0-0.9,0.2-2,0.5C69.5,434.9,75.8,447.7,71.7,464.7z M231.7,620.6
		c0.2,0.1,0.4,0.2,0.6,0.2c2.1-5.7,4.2-11.4,6.2-17.1c0.2-0.5,0-1.3-0.1-1.9c-3.3-17.2-9.9-33-20.9-46.8c-0.6-0.8-2.4-1.4-3.4-1.2
		c-7.2,1.9-14.2,1.5-21.2-0.8c-1-0.3-2-0.5-3-0.8c0.3,1.1,0.9,1.7,1.5,2.2c5.3,4.5,10.8,8.8,15.8,13.7
		c10.8,10.4,19.6,22.2,22.8,37.3C231.1,610.4,231.2,615.6,231.7,620.6z M617.3,553.1c-0.1-0.2-0.2-0.4-0.4-0.6
		c-0.5,0.1-1.1,0.1-1.5,0.2c-7.6,2.7-15.2,3.3-23.1,1.1c-0.8-0.2-2.3,0.7-3,1.5c-8.4,10.4-13.9,22.3-18,34.9
		c-2.7,8.2-3.6,16.1,0.8,24.1c1.2,2,1.7,4.4,2.7,6.8c0.6-0.5,0.8-0.6,0.8-0.8c0-0.9,0-1.7,0-2.6c-0.2-7.2,1.2-14.1,3.8-20.7
		c5.5-13.7,14.9-24.4,25.8-34C609.1,559.6,613.2,556.4,617.3,553.1z M139.1,551.4c-0.1,0.3-0.2,0.5-0.4,0.8c2.7,2,5.4,4.1,8.2,6.1
		c8.9,6.3,17.7,12.9,28.3,16.3c3.7,1.2,7.9,1,11.9,1.2c2,0.1,2.4-1.4,2-3.2c-1.1-4.3-2.1-8.5-3.4-12.7c-0.4-1.3-1.5-2.6-2.6-3.5
		c-4.1-3-8.4-6-12.7-8.7c-0.9-0.5-2.4-0.5-3.4-0.2c-4.7,1.2-9.3,3.1-14.1,3.8C148.3,551.9,143.7,551.4,139.1,551.4z M668.1,551.6
		c-0.4-0.2-0.6-0.4-0.7-0.4c-1.1,0-2.1,0.1-3.2,0.1c-7.2,0.5-14.6,0.8-21.1-2.7c-4.3-2.3-7.1-1.3-10.2,1.2c-0.3,0.3-0.7,0.6-1,0.7
		c-8.7,4.1-12.6,11.3-13.6,20.5c-0.4,3.9-0.1,5.1,3.9,4.9c3.9-0.2,8-0.8,11.5-2.2c12.5-4.9,23.1-13.1,33.7-21.1
		C667.6,552.6,667.8,552.1,668.1,551.6z M623.2,777.3c-2.8-1.1-5.3-1.7-7.4-3c-4.5-2.8-5.3-2.9-9.1,0.8c-1.2,1.1-2.3,2.3-3.3,3.6
		c-7.7,10-8.7,21.6-8.2,33.6c0,0.6,0.5,1.5,1,1.9c3.1,2,6.3,4,10,6.3c-0.1-1.9-0.2-3-0.2-4.1c0-4.5-0.4-9,0.1-13.5
		c1.2-12.8,8.9-18.8,21.7-17.3c1.5,0.2,3.1,0.4,4.8,0.6c0-7.7,0.2-15,6.1-21.2c-4-0.6-7.3-1-10.8-1.5c0,4,0,7.6,0,11.2
		C626.1,775.3,623.2,773.1,623.2,777.3z M272.4,692.7c1.4,0.6,2.5,1.2,3.6,1.4c4.7,0.8,8.5,5.8,14.3,2.8c1.6-0.9,2.5-1.3,2.7-3.1
		c0.8-6.3,1.8-12.5,2.4-18.8c0.6-6.1,0.9-12.3,0.9-18.5c0-2.5-1.4-4.9-4.2-5.4c-2.8-0.5-4.8,1.1-6.2,3.3c-1.6,2.7-3,5.7-4.3,8.6
		C277.5,672.4,274.3,682.3,272.4,692.7z M539,691.1c-0.8-7.7-8.4-29.8-12.5-36c-0.8-1.2-1.8-2.4-3-3.3c-2.9-2.2-6-1.6-7.4,1.8
		c-0.9,2-1.5,4.4-1.4,6.5c0.5,6.4,1.3,12.8,2.2,19.2c0.7,5.2,1.4,10.4,2.1,15.4c3.8,0.5,7,2.7,10.7,0.4
		C532.5,693.5,535.7,692.5,539,691.1z M165.1,770.6c-6.8,0.1-13.2,0.4-19.2,2.9c-1.8,0.7-3.7,1.5-3.3,4.1c0.7,4.6,1,9.4,2.5,13.8
		c1.9,5.9,5.9,10.2,11.9,12.7c2.5-3.9,6.1-5.9,10.4-6.7c4-0.7,8.1-1,12.7-1.6C170.9,789.5,165.5,781.7,165.1,770.6z M557.6,839
		c1.2-8.7,2.5-17.1,9.6-23c7.3-6.1,15.9-4.8,24.6-3.9c0-2.6,0.1-4.8,0-7.1c-0.3-6.6,1.1-5.8-5.9-6.7c-11.3-1.5-21.4,0.5-28.1,10.9
		c-3.7,5.7-4.7,12.2-5.7,18.9C551.1,833.1,553,836.3,557.6,839z M270.3,689.4c1.5-9.2,3.3-18.3,4.5-27.5c0.5-3.6,0.2-7.5-0.5-11.1
		c-0.3-1.8-2.2-4.1-3.8-4.5c-1.5-0.3-3.7,1.4-5.2,2.6c-1,0.8-1.5,2.3-2,3.6c-3.5,9.9-7,19.7-10.5,29.8
		C255.7,689.7,262.1,690.4,270.3,689.4z M666.1,756.3c0.2-0.1,0.4-0.3,0.6-0.4c-0.1-0.4-0.1-0.8-0.3-1.1c-2.9-4-5.7-8-8.8-11.9
		c-0.6-0.7-2-1-3.1-1c-9.5,0.4-19,1-28.6,1.5c-3.1,0.2-6.3,0.4-9.6,0.7c6.2,12.6,21.2,21.6,32.2,19.2c0.4-5.6,0.8-11.3,1.3-17.8
		c3.3,4,6,7.3,8.9,10.8c1.1-1.4,2-2.5,3-3.8C663.3,753.8,664.7,755,666.1,756.3z M559.6,681.8c-1.7-4.1-3.2-7.2-4.4-10.4
		c-2.5-6.6-4.7-13.3-7.2-20c-1.5-4-4.4-6.1-7-5.6c-2.5,0.5-4.3,3.3-4.5,7.4c-0.6,11.9,2.2,23.4,5.5,35.5c3.3-0.4,6.8-0.1,9.7-1.2
		C554.6,686.4,557,683.8,559.6,681.8z M711.2,382.1c-1,0.2-1.4,0.2-1.8,0.4c-6,2.9-11.9,5.9-17.8,8.9c-0.8,0.4-1.5,1.2-1.8,2
		c-2.5,6.7-2.4,13.2,1.2,19.5c1.6,2.8,3.4,4.7,7.1,3.9c2.4-0.5,4.9-0.3,7.4-0.4c3.3-0.2,6.7-0.5,10.6-0.7
		C707.1,405.3,705.3,394.4,711.2,382.1z M97,382.2c-0.3,0.1-0.6,0.3-0.9,0.4c5.5,12,3.7,22.9-5.3,33.1c7.6,0.4,14.5,0.8,21.3,1.1
		c0.7,0,1.7-0.8,2.2-1.5c5.2-6.7,5.7-14.1,2.9-21.9c-0.2-0.7-0.7-1.4-1.3-1.7C109.6,388.5,103.3,385.3,97,382.2z M645.6,794.5
		c0.4-1.4,0.6-2.8,1.1-4c2.2-5.2,4.1-10.6,7-15.4c3.1-5,8.1-6,13.6-3.8c1.7,0.7,3.4,1.6,6,2.9c-0.8-3.7-0.5-7.3-2.2-9.4
		c-2.5-3-6.4-4.9-9.8-7.4c-0.8,1.2-1.4,2.1-2.1,3.2c-2.6-2.7-5-5.3-7.9-8.3c-0.5,5.7-0.9,10.6-1.4,15.6c-2.7-0.2-5-0.1-7.1-0.5
		c-2.4-0.5-3.5,0.5-4.6,2.5C633.8,777.9,637,789.1,645.6,794.5z M687,285.7c-0.4,0.3-0.7,0.4-0.7,0.6c-1.5,6.9-3.1,13.8-4.5,20.7
		c-0.1,0.7,0,1.5,0.3,2.2c2.6,5.5,6.1,10.3,10.9,14.1c1.6,1.3,2.6,1.3,4-0.3c4.7-5.4,9.5-10.7,14.2-16.1c0.5-0.6,0.9-1.3,1.4-2.1
		C699.9,303.5,692.7,295.5,687,285.7z M94.5,304.7c1,1.4,1.5,2.4,2.3,3.2c3.3,3.7,6.6,7.4,9.8,11.1c5.8,6.5,5.8,6.6,11.8,0
		c4.9-5.4,8.6-11.2,5.4-19c-1.1-2.8-1.4-6.1-2-9.1c-0.4-1.7-0.8-3.4-1.3-6.1C114.3,295.4,107.2,303.2,94.5,304.7z M617.2,562.4
		c-0.3-0.1-0.6-0.3-0.9-0.4c-1.8,1.5-3.6,2.9-5.3,4.5c-16.8,15.7-27.1,35.2-33.2,57.1c-0.6,2.3,0.4,5,0.7,8.1c1-0.9,1.2-1,1.3-1.1
		c0.2-0.4,0.3-0.8,0.4-1.2c3.3-14.5,10.6-26.9,21.8-36.3c6.7-5.6,10.5-12,12.2-20.2C615,569.3,616.2,565.9,617.2,562.4z
		 M190.7,561.8c-0.3,0.2-0.6,0.5-0.9,0.7c0.2,0.9,0.4,1.8,0.7,2.7c1.7,5.8,3.3,11.6,5.2,17.2c0.7,2,2.1,4,3.7,5.3
		c13.3,11,23.2,24.3,27.3,41.4c0.2,0.6,0.5,1.2,0.8,1.9c0.3,0,0.6,0,1,0c0.3-2.3,1.3-4.8,0.7-6.9c-5.2-19.7-14.1-37.5-28.1-52.4
		C197.8,568.2,194.2,565.1,190.7,561.8z M207.6,869.6c5.5,0.8,10.2,1.7,15,2.1c12.6,0.9,24.3-1.7,34.7-9.1c0.5-0.4,1-0.7,1.5-1.1
		c1.9-1.5,2.8-3.4,1.3-5.6c-1.5-2.2-3.6-1.6-5.8-0.8c-4.2,1.7-8.4,3.7-12.8,4.7c-8.2,1.7-16.4,0.3-24.6-0.9
		c-1.1-0.2-2.8,0.1-3.3,0.8C211.6,862.6,209.9,865.8,207.6,869.6z M294.5,761.2c0.2,0,0.4,0,0.6,0c0.1-1.3,0.1-2.7,0.4-4
		c1.5-9.3,3-18.6,4.8-27.8c0.4-1.9,0.8-3.5-0.2-5.4c-2-3.8-1.8-7.8-0.1-11.8c0.4-0.9,0.7-1.9,0.9-2.2c-4-1.7-7.7-3.2-11.3-4.7
		c-2.1,7.4-3.1,15,0.1,22.6c1,2.3,0.8,4.4-1.4,6c-0.5,0.3-0.9,1.1-0.9,1.6c0,5.6-0.1,11.4,3.6,16c2.1,2.6,3.9,4.8,3,8.2
		C293.8,760,294.3,760.6,294.5,761.2z M592.4,797.3c1.7-11.6,5.7-21.5,17.6-26.9c-5.9-4-11.4-6.7-18.1-7.8c-0.5,8.4-1,16.5-1.5,24.7
		c-3-0.2-5.8-0.3-8.5-0.4c-0.6,1.1-1,2-1.2,2.5c-4.9-1.1-9.4-2.1-14.2-3.2c0,3.8,0,7,0,10.7C575.3,793.4,583.7,794.7,592.4,797.3z
		 M90.6,423c-0.1,0.3-0.2,0.7-0.3,1c6.3,6.5,9.5,14.1,8.6,23.6c6.9-2.5,13.4-4.8,19.7-7.2c0.6-0.2,1.2-1.6,1.2-2.4
		c-0.3-5.2-2.3-9.8-5.7-13.7c-0.6-0.7-1.6-1.3-2.4-1.3C104.7,423,97.7,423,90.6,423z M717,423c-7.7,0-15,0-22.2,0.1
		c-0.6,0-1.4,0.6-1.8,1.1c-3.5,4-5.6,8.6-5.8,13.9c0,0.9,0.9,2.2,1.7,2.6c3.4,1.4,7,2.6,10.5,3.8c2.7,1,5.5,1.9,8.4,3
		C708.2,437.1,707.9,435.2,717,423z M278.1,818.6c-1.3-6.7-2.5-13.4-4.1-20.1c-0.3-1.5-1.7-2.7-2.6-4.1c-1.3,1.3-2.6,2.5-3.9,3.8
		c-0.1,0.1-0.2,0.4-0.2,0.6c-1.8,7.9-3.8,15.8-5.1,23.8c-0.5,2.7,0.5,5.7,1.4,8.4c1.3,3.6,3.9,4.2,7.1,2
		C275.7,829.6,277.9,824.8,278.1,818.6z M278.5,757.6c-1.2,1.7-2.1,2.7-2.8,3.9c-4.7,6.9-3.6,24.3,2,30.5c2.4,2.6,5.5,3.4,8.3,1.1
		c2.7-2.2,4.8-5.2,6.3-6.9C287.5,776.3,283.2,767.5,278.5,757.6z M197.3,486.2c-0.5-0.9-0.7-1.4-1-1.8c-8-8.7-19.7-10.8-29.4-4.3
		c-5.5,3.7-10.4,8.5-15.1,13.3c-4.4,4.6-4.2,5.6-0.3,11.7C162.3,488.5,178,483.4,197.3,486.2z M655.7,505.6c1.1-2.7,1.9-4.5,2.5-6.4
		c0.2-0.8,0-2-0.5-2.6c-5-6.5-10.5-12.5-17.7-16.6c-9-5.2-17.7-4.7-26.1,1.7c-1.5,1.2-2.9,2.5-4.3,3.8c0.1,0.2,0.3,0.5,0.4,0.7
		C628.9,483.4,644.5,488.5,655.7,505.6z M686.4,417.4c-7.3-6.3-4.9-14-4.1-21.8c-6.1,3.2-11.7,6.2-17.3,9.3c-0.5,0.3-1,1.2-1,1.8
		c-0.1,4.8,0,9.6,0,14.9C671.6,420.1,678.6,418.8,686.4,417.4z M124.6,395.6c0.8,7.9,3.1,15.5-4,21.8c7.7,1.4,14.8,2.7,22.4,4.1
		c0-5.3,0-10.1,0-14.9c0-0.6-0.5-1.5-1-1.8C136.4,401.8,130.7,398.8,124.6,395.6z M258.5,652.6c0.1-3.7-2.1-7.8-4.2-7.9
		c-3.7-0.1-4.3,3-5.2,5.6c-2.6,8.4-5.1,16.8-7.5,25.2c-0.4,1.3-0.1,3,0.5,4.3c0.6,1.3,1.8,2.3,2.7,3.4c1.7,2.2,3.3,2.1,4.7-0.4
		c0.5-0.9,0.6-2,0.9-3c2.4-8.3,4.8-16.6,7.2-25C257.9,653.9,258.3,653.1,258.5,652.6z M570.7,676.8c-1-2.7-1.9-4.6-2.5-6.6
		c-2-6.7-3.8-13.4-5.7-20c-0.8-2.6-1.6-5.6-5.3-5.4c-2.1,0.1-4.1,3.7-4,7c0,0.9,0.4,1.8,0.7,2.7c2.4,8.1,4.8,16.2,7.2,24.2
		c0.4,1.3,0.7,2.7,1.5,3.8c0.5,0.6,2.3,1.2,2.6,0.9C567.2,681.2,568.9,678.9,570.7,676.8z M203.3,711.8c-7.4-3.1-18.3-1.5-23.4,4.3
		c-5.1,5.6-9.4,11.9-14,18c-0.1,0.1,0.1,0.4,0.3,0.8c4-0.4,8-0.7,12-1.4c1.2-0.2,2.7-1.2,3.2-2.3c3-6.3,7.4-11.3,13.3-14.9
		C197.5,714.6,200.4,713.3,203.3,711.8z M215.1,856.5c6.7,0,12.6,0.3,18.6-0.1c7.5-0.5,14.5-2.6,20.6-7.3c3.1-2.5,4.2-7.7,2-12.3
		c-2.1,1.8-4.6,3.1-5.8,5.2c-3.2,5.3-7.8,8.1-13.7,8.1c-4.7,0-9.3-1-14-1.4c-1-0.1-2.5,0.1-3,0.7C218.2,851.3,217,853.5,215.1,856.5
		z M553.9,796.4c3.2,0.5,6.3,0.9,9.5,1.4c0.8-4.1,1.3-8.4-1.8-10.5c-3.3-2.3-5.6-4.8-6.9-8.6c-3.7,9.4-7.1,18.8-10.4,28.1
		c-0.2,0.5,0,1.6,0.4,1.9c2.3,1.6,4.7,3.1,7.6,5C553,807.4,553.5,801.9,553.9,796.4z M223.5,368c0,0.3,0,0.6,0,0.9
		c6.6,1.7,13.2,3.5,19.8,5.1c0.6,0.1,1.8-0.5,1.9-1c2.5-6.8,4.8-13.6,7.1-20.5c-0.2-0.2-0.4-0.3-0.6-0.5
		C242.3,357.3,232.9,362.6,223.5,368z M583.5,368.9c0-0.3,0.1-0.5,0.1-0.8c-9.5-5.4-19-10.7-28.4-16.1c-0.2,0.2-0.4,0.4-0.6,0.6
		c2.5,7.2,5,14.4,7.6,21.8C569.5,372.4,576.5,370.7,583.5,368.9z M244.6,650.9c-0.4-0.7-0.8-2.4-1.7-2.9c-1-0.5-3-0.1-3.8,0.6
		c-1.4,1.3-2.6,3.1-3.3,5c-1.6,4.1-2.9,8.3-4.3,12.4c-2.3,6.8-2.3,6.8,3.1,11.5c2.5,2.2,4.4,1.7,5.1-1.5
		C241.4,667.9,242.9,659.7,244.6,650.9z M582.2,673.3c0-0.6,0.1-1.5-0.2-2.3c-2.3-6.6-4.6-13.1-7-19.6c-0.5-1.2-1.5-2.5-2.6-3.1
		c-1.1-0.6-2.8-0.9-3.8-0.4c-0.8,0.4-1.5,2.2-1.3,3.2c1.4,8.1,2.9,16.2,4.7,24.2c0.6,2.8,2.7,3.1,4.9,1.4
		C578.4,675.6,580.1,674.6,582.2,673.3z M598.6,394.4c0.4,0.1,0.7,0.2,1.1,0.3c1.1-2.3,2.7-4.5,3.1-6.9c1.3-9.7,2.2-19.6,3.2-29.3
		c0.1-0.6-0.3-1.6-0.7-1.9c-2.5-1.2-5.1-2.3-8.1-3.6C597.6,367.3,598.1,380.8,598.6,394.4z M664.8,424.4c0.7,4.4,1.3,8.4,2,12.6
		c5.4,0.3,10.5,0.6,15.7,0.9c-0.2-6.4-0.2-6.4,6.2-14.7C680.6,422.3,672.8,422.8,664.8,424.4z M124.4,438c5.4-0.3,10.5-0.6,15.7-1
		c0.7-4.3,1.3-8.4,2-12.6c-8-1.6-15.8-2.2-23.9-1.2C124.7,431.4,124.7,431.4,124.4,438z M208.3,395.2c0.5-14.5,1-28.1,1.5-42.1
		c-2.3,1-4.2,1.9-6.2,2.5c-2.3,0.7-2.9,2-2.7,4.3c0.7,7.3,1.1,14.7,2,22.1C203.5,386.5,204.3,391.1,208.3,395.2z M157.3,766.3
		c0.8-0.1,2-0.5,3.3-0.4c2.6,0,3.7-1,4.1-3.7c0.9-6.5,4.1-11.9,9.2-16.1c3.6-3,7.4-5.7,11.1-8.5c0-0.2-0.1-0.4-0.1-0.6
		c-2.4,0.7-4.7,1.4-6.8,2c0,0.1,0.1-0.6,0.1-1.1c-5.1,0-10,0-15.3,0c0,5.3,0.7,10.3-0.2,14.9C161.6,757.5,159.1,761.8,157.3,766.3z
		 M129.1,777.6c4.4,1.1,6.5-1.7,8.8-3.4c11.1-8.2,21.3-17.1,22.1-32.3c-0.3-0.2-0.5-0.4-0.8-0.6
		C149.4,753.2,139.4,765.1,129.1,777.6z M547.8,349.3c-7.2,1.9-14,3.7-20.9,5.5c0,0.3,0.1,0.5,0.1,0.8c9,4.6,18,9.3,27.7,14.3
		C552.3,362.6,550.1,356.1,547.8,349.3z M280.2,354.8c-7.1-1.9-14-3.7-21.1-5.5c-2.3,6.8-4.5,13.3-7,20.6c9.7-5,18.4-9.5,27.2-14.1
		C279.6,355.7,279.8,355.4,280.2,354.8z M546.8,520.8c12.1,2.7,37.2-11,41.1-22.1C573.6,504.8,560.2,512,546.8,520.8z M259.5,520.8
		c-5.9-5.5-36.5-21.6-40.5-21.4C229.4,512.6,247.2,524,259.5,520.8z M527.7,797.2c0.9-2.2,1.7-3.8,2.4-5.4
		c4.3-10.4,8.5-20.8,12.8-31.2c1.7-4.1,1.5-4.8-2.3-7.7c-0.4,0.9-0.9,1.7-1.3,2.6c-4.4,10.3-8.6,20.8-13.3,30.9
		C523.9,790.6,524.8,793.5,527.7,797.2z M545,760.9c-0.5,1.2-0.9,1.9-1.2,2.7c-4.3,12.3-8.5,24.7-12.9,37c-1.1,3-0.1,4.8,1.7,7.2
		c0.5-1,1-1.7,1.3-2.5c4.4-10.8,8.4-21.8,13.3-32.4C549.5,768.1,547.3,765,545,760.9z M223.3,555.3c10.4,9.1,18.2,19.1,18.8,33.1
		c4.4-11,2.4-21.3-3.1-31.1c-0.3-0.5-0.9-1-1.4-1.1C233.1,556,228.7,555.7,223.3,555.3z M582.9,555.1c-2.4,0.4-4.9,1.3-7.2,0.9
		c-7.6-1.3-9.8,3.6-11.5,9.3c-0.5,1.5-0.9,3.1-1.3,4.7c-1.2,6.3-1,12.4,1.8,18.4C565.4,574.3,573.3,564.3,582.9,555.1z M265.3,345.7
		c0.1,0.3,0.1,0.5,0.2,0.8c6.7,1,13.5,2,20.2,2.9c0.5,0.1,1.3-0.4,1.5-0.8c2.6-5.4,5.1-10.9,7.7-16.3c-0.2-0.2-0.4-0.3-0.6-0.5
		C284.6,336.4,275,341,265.3,345.7z M541.3,346.5c0.1-0.3,0.1-0.6,0.2-0.9c-9.7-4.6-19.3-9.3-29-13.9c2,5.9,4.5,11.3,7.1,16.6
		c0.2,0.5,1.2,1,1.7,0.9C528,348.4,534.7,347.4,541.3,346.5z M611.9,737c-0.3,2.7,0.8,3.4,3.1,3.4c11.9-0.1,23.8-0.1,35.7-0.1
		c1.2,0,2.4-0.2,4-0.3c-1.4-1.6-2.6-2.6-3.4-3.8c-1.6-2.5-3.8-3-6.6-2.6c-4.9,0.7-9.8,1-14.7,1.6C624,735.7,618,736.4,611.9,737z
		 M280.7,714.7c-2.8,1-5,1.7-7.1,2.7c-0.6,0.3-1.1,1.9-0.9,2.7c1.3,5.3,2.5,10.7,4.4,15.7c2.3,6.1,5.1,11.9,7.8,17.8
		c0.4,1,1.6,1.6,2.4,2.4c0-1.5-0.6-2.5-1-3.6c-1.6-3.7-3.3-7.4-4.5-11.3c-1-3.2-0.7-6.2,2.1-8.8c0.8-0.7,1.2-3.1,0.6-3.9
		C281.7,724.5,280.3,720.1,280.7,714.7z M634.5,731c0-0.3,0-0.6,0-0.9c-9.6-0.5-19.2-0.9-28.9-1.4c0,0,0,0,0-0.1c11.5,0,23,0,34.8,0
		c-2.2-2.8-4.3-4.4-7.9-4.2c-9.2,0.5-18.4,0.6-27.7,0.9c-2.2,0.1-4.4,0.2-7.6,0.4c1.5,1.2,2.5,2.5,3.3,2.4c2.5-0.3,3.4,1.7,4.9,2.8
		c0.9,0.7,2.2,1.2,3.4,1.3c2.5,0.1,4.9-0.1,7.4-0.2C622.4,731.8,628.4,731.4,634.5,731z M670.2,882.7c-0.1-0.9,0.3-2.5-0.4-3.5
		c-2-3.2-4.9-5.9-6.6-9.3c-2.8-5.6-4.7-11.7-7.3-17.4c-0.5-1.1-2-1.8-3-2.7c-0.3,1.2-1,2.6-0.8,3.7c0.9,4.6,1.8,9.2,3.2,13.7
		c1.8,6.2,4.2,12.1,7.7,16.3C665.5,883.3,667.4,883.1,670.2,882.7z M486.4,340.2c8.5,2.9,16.1,5.4,24.2,8.2
		c-1.1-6.4-2.1-12.3-3.2-18.6C500.5,333.2,493.9,336.5,486.4,340.2z M296.3,348.4c8.2-2.8,15.7-5.3,23.1-7.9c0-0.3,0-0.6-0.1-0.9
		c-6.5-3.2-13-6.5-19.9-9.9C298.4,336.2,297.4,342,296.3,348.4z M149.8,815.6c-14.3-8.3-16.9-23.3-22.5-36.9
		c-1.1,1.6-2.5,3.5-2.1,4.8c3.8,12.7,8.6,24.9,17.5,35c0.9,1.1,2.1,2,3.4,3.2C147.5,819.5,148.6,817.7,149.8,815.6z M537.7,817.8
		c0.6-1.3,1-2.4,1.4-3.5c4.3-11.7,8.4-23.4,12.9-35c1.3-3.3,0.2-5.3-2-7.8c-0.5,1.1-0.8,1.8-1.1,2.6c-4.4,11.8-8.7,23.7-13.2,35.5
		C534.5,813,535.4,815.2,537.7,817.8z M124.5,389.9c5.5,3.8,11.6,7.9,17.6,12.1c0.2-0.2,0.4-0.4,0.6-0.6c-2.2-7.8-4.3-15.6-6.5-23.4
		C132.3,382,128.7,385.7,124.5,389.9z M670.7,378c-2.1,7.7-4.3,15.6-6.5,23.4c0.2,0.2,0.4,0.3,0.7,0.5c6-4.1,12-8.3,17.6-12.1
		C678.4,385.8,674.6,382,670.7,378z M587,371.2c-5.7,2.7-10.7,5.2-16.3,7.9c5.6,4.5,10.8,8.6,16.3,13C587,384.8,587,378.3,587,371.2
		z M220,371.3c0,7.1,0,13.7,0,20.8c5.5-4.4,10.7-8.6,16.2-13C230.6,376.4,225.6,374,220,371.3z M677,342.6
		c5.5-5.6,10.6-10.7,15.9-16c-5.4-0.5-8.9-4.1-12.5-8.9C679.1,326.5,678.1,334.2,677,342.6z M130,342.8c-1.1-8.5-2.2-16.3-3.2-24.1
		c-3.8,4.1-7.4,7.4-12.8,8C119.3,332.1,124.4,337.1,130,342.8z M136.5,778.7c-1.8,1.4-4.9,1.3-3.7,4.1c2.8,6.9,5.5,13.9,9,20.4
		c2.2,4.1,5.9,7.2,10.7,8.8c0.8-1.5,1.6-2.9,2.4-4.5C142.6,801.9,138.6,791.1,136.5,778.7z M229.6,678c-1.4-1.9-2.1-3.8-3.4-4.8
		c-3-2.2-2.9-4.8-2.2-7.9c0.6-2.6,1-5.2,1.4-7.8c-2.3,1.8-3.9,3.7-5.6,5.6c-6.1,6.8-6.1,6.8-2.6,15.3c0.1,0.2,0.1,0.5,0.2,0.6
		c0.5,0.4,1.2,1.1,1.7,1C222.4,679.5,225.7,678.8,229.6,678z M225,709c4.9-1.4,9.5-2.7,14.3-4.1c-1.1-3.5-2.1-6.5-3.2-9.9
		c-4.5,1.2-8.8,2.3-13.3,3.4C223.5,702.1,224.2,705.3,225,709z M627.1,714.9c-1.6-2.8-3.4-4.1-6.6-4c-10.6,0.4-21.2,0.5-31.8,0.8
		c-0.7,0-1.3,0.3-2,0.4c-0.1,0.4-0.1,0.7-0.2,1.1c1.8,0.5,3.6,1.3,5.4,1.4c10.6,0.2,21.2,0.3,31.8,0.4
		C624.8,715.1,625.8,715,627.1,714.9z M681.6,837c-0.3,0-0.5-0.1-0.8-0.1c-0.3,1.7-1,3.5-0.9,5.2c0.9,11.4,1.9,22.8,2.8,34.2
		c0.3,4,0.5,4.3,5,4.1C685.7,865.9,683.7,851.4,681.6,837z M270,712.5c0.6,0,1,0,1.3-0.1c2.9-0.8,5.8-1.6,8.7-2.4
		c2.1-0.6,4.6-4.7,4.1-6.8c-0.1-0.5-0.7-1.1-1.2-1.2c-5.5-1.4-10.7-0.6-16.1,1.7C267.9,706.9,269,709.7,270,712.5z M621.6,708.8
		c-1.5-2.5-2.9-3.7-5.6-3.7c-10.6,0.2-21.2,0.2-31.9,0.2c-1,0-2,0.1-3,0.2c-0.1,0.4-0.2,0.9-0.3,1.3c1.8,0.6,3.5,1.6,5.3,1.7
		c10.3,0.2,20.6,0.2,30.9,0.3C618.4,708.8,619.8,708.8,621.6,708.8z M193.2,700.3c6.7-1.8,13.1-3.5,19.7-5.3
		c-0.7-2.7-1.3-5.1-1.9-7.3C202.3,687.9,196.3,691.5,193.2,700.3z M656.3,391.5c0.6,14.6,0.6,28.9,4.4,42.9c0.4-0.7,0.4-1.3,0.4-1.9
		c0-11.2-0.2-22.5,0-33.7C661.2,394.4,661.1,393.7,656.3,391.5z M146.6,432.6c3.5-13.4,3.3-27.2,4-41.3c-4.8,2.6-5.1,3.2-5,5.7
		c0.4,6.2,0.8,12.4,1,18.6C146.8,421.3,146.6,427,146.6,432.6z M616.1,703.3c-1.6-3.1-2.9-4.9-6.2-4.7c-8,0.5-16,0.6-24.1,0.9
		c-2.8,0.1-5.5,0.4-8.3,0.5c0,0.4,0,0.9,0,1.3C590.1,703.4,602.9,702,616.1,703.3z M544.8,811.9c0,5.3-0.2,10.8,0.1,16.1
		c0.2,2.4,2.2,3.9,4.5,4.2c1.2-5.9,2.2-11.5,3.3-17C550.2,814.2,547.5,813,544.8,811.9z M200.7,719.7c-5.5,4.4-12.3,6.8-16.9,12.6
		c1.7,0.1,3.1-0.3,4.4-1c7.6-4.6,15.2-9.2,22.7-13.8c0.9-0.6,1.6-1.6,2.6-2.6c-4.2-1.4-13.5,1.7-16.4,5.2
		C198.5,719.9,199.6,719.8,200.7,719.7z M592.8,718c0,0.4,0,0.8,0,1.2c1.8,1.9,35.2,3.1,39.6,1.4c-1.1-2.2-2.7-3.3-5.3-3
		c-4.3,0.3-8.5,0.4-12.8,0.5C607.1,718,600,718,592.8,718z M249.1,707.6c1.6,3.9,3,7.3,4.5,10.8c3.2-1.1,6-2,9.1-3
		c-1-3.4-1.9-6.5-3-10C256.2,706.1,252.9,706.8,249.1,707.6z M267.6,772.2c0.3-0.9,0.6-1.8,1-2.7c1.7-3.8,3.2-7.7,5.3-11.2
		c2.8-4.6,3.1-4.5-0.6-8.7C267.5,752.3,263.2,768.6,267.6,772.2z M245.7,702.3c4.1-0.9,8-1.8,11.8-2.7c-1.2-7.3-5.8-9.2-14.8-5.5
		C243.6,696.7,244.6,699.3,245.7,702.3z M215.8,701.9c-7.3,2-14.3,3.9-21.2,5.8c0.1,0.3,0.1,0.6,0.2,0.9c7.7,0.4,15.4,0.9,23.5,1.3
		C217.3,707,216.6,704.7,215.8,701.9z M221.3,693.3c4.1-1,8.1-1.9,12.2-2.8c-1.1-2.8-1.9-5.1-2.9-7.6c-4,0.8-7.8,1.6-11.9,2.5
		C219.6,688.1,220.4,690.5,221.3,693.3z M183.6,745c-8.5,2-18.4,12-17.6,19.7c6.6,0.3,8.7-1.8,8.2-8.5c-0.9,0.4-1.7,0.8-2.5,1.1
		c-0.1-0.2-0.3-0.3-0.4-0.5C175.1,753.1,179.1,749.3,183.6,745z M605.6,691.8c-0.1-2.6-1.6-2.8-3.4-2.8c-11.2,0-22.5,0-33.7,0
		c-0.5,0-1.1,0.1-1.6,0.2c0,0.4,0,0.8,0,1.2C579.7,692.9,592.7,691.1,605.6,691.8z M277.2,796.1c1.1,5.4,2.3,10.8,3.6,17
		c2.5-6,4.6-11.2,7-17C283.7,796.1,280.3,796.1,277.2,796.1z M397.5,333.4c2.1,5,4,9.4,6,14.2c2-4.9,3.9-9.3,5.9-14.2
		C405.4,333.4,401.5,333.4,397.5,333.4z M573.4,694.6c0,0.4,0.1,0.9,0.1,1.3c12.3,0.3,24.6,0.7,36.9,1c0.1-0.4,0.3-0.9,0.4-1.3
		c-1.3-0.6-2.6-1.7-3.9-1.8c-3.3-0.2-6.6,0.1-9.9,0.1C589.1,694.1,581.2,694.3,573.4,694.6z M187,396.9c0.3,0,0.6,0,0.9,0
		c0.8-11.3,1.7-22.7,2.5-34.1c-2.5,0.5-3.7,1.8-3.7,4.4c0,2.8-0.4,5.6-0.4,8.3C186.5,382.7,186.7,389.8,187,396.9z M616.6,362.8
		c0.8,11.5,1.7,22.9,2.5,34.3c0.7-1.3,1-2.6,1-3.9c0.1-8.7,0-17.3,0.1-26C620.3,364.5,619,363.3,616.6,362.8z M635.7,884.5
		c3,6.9,7.1,13,12.2,18.4c1-1.1,1.8-2,2.6-3C646.8,893.3,639.8,885.8,635.7,884.5z M258.4,811.8c0.7-0.5,1-0.6,1-0.8
		c0.2-0.8,0.4-1.7,0.6-2.5c1.3-6.7,3.9-12.9,8.4-18.1c2.1-2.4,1.2-3.6-1.2-5C261.7,793.3,256.8,801.2,258.4,811.8z M526.5,776.4
		c3.2-4.9,4.4-10.2,3.6-15.7c-0.4-2.5-1.7-5-3-7.3c-1.3-2.2-3-2.2-4.4,0.4C529,760.5,526.8,768.6,526.5,776.4z M270.7,736
		c-1.6-5.1-3-9.9-4.6-15.2c-3.3,1.5-6.2,2.8-9,4.1C261.7,728.8,266,732.3,270.7,736z M102.3,969.3c0.3,0.3,0.7,0.5,1,0.8
		c0.7-0.4,1.5-0.7,2-1.3c3-3,6-6.1,8.9-9.2c1.2-1.3,2.3-3.3,0.3-4.3c-1.2-0.6-4.2-0.4-4.8,0.5C106.9,960.1,104.7,964.7,102.3,969.3z
		 M569.9,684.7c0.1,0.4,0.2,0.8,0.3,1.2c10.6,0.3,21.1,0.7,31.7,1c0.1-0.3,0.2-0.7,0.3-1c-1-0.5-2-1.4-3.1-1.4
		c-8.8-0.3-17.5-0.6-26.3-0.7C571.8,683.7,570.8,684.4,569.9,684.7z M210.5,501.3c-3.3,3.6-5.8,7.5-6.7,12.3
		c-0.2,0.8,0.8,2.2,1.6,2.8c0.5,0.3,2.1,0,2.5-0.6C210.6,511.4,212.2,506.7,210.5,501.3z M597.1,500.5c-0.3,0.1-0.7,0.2-1,0.4
		c-1.4,4.5-0.1,8.8,1.7,12.9c0.7,1.6,1.5,3.5,3.7,2.7c2.3-0.8,2-2.9,1.3-4.6C601.1,508,599,504.2,597.1,500.5z M601.7,487.5
		c6-4.5,11.9-9,17.8-13.4c0,0-0.3-0.2-0.6-0.2c-5.8,0.8-10.6,3.7-15.1,7.2C601.7,482.9,600.5,485.1,601.7,487.5z M579,681.7
		c6.4,0,12.7,0,19,0c-0.2-0.9-0.4-1.8-0.6-2.8c-6.1,0-12,0-18.1,0C579.2,679.8,579.1,680.6,579,681.7z M205.4,487.7
		c-0.1-1.3,0.4-3.2-0.3-4.1c-4.7-5.3-10.6-8.6-17.9-9.7C193.3,478.5,199.3,483,205.4,487.7z M227.3,671.5c2.1-7.5,4.2-14.9,6.3-22.2
		C228.8,649.5,224.3,665.1,227.3,671.5z M584.2,670.4c0.2-0.1,0.4-0.2,0.5-0.4c1.7-7.4-0.9-13.9-4.4-20.1c-0.3-0.6-1.6-0.7-2.3-0.9
		C580.1,656.2,582.1,663.3,584.2,670.4z M265.9,848.7c0.3,0,0.6,0.1,0.9,0.1c1.6-3.2,3.2-6.3,4.7-9.4c-3-1.2-5.5-2.3-8.6-3.5
		C264,840.5,265,844.6,265.9,848.7z M179.8,792.4c-2.9-4.8-6-10.2-9.3-15.4c-0.6-0.9-2.1-1.3-3.2-2c0.1,1.2-0.2,2.5,0.3,3.5
		C170.6,784.5,174.4,789.7,179.8,792.4z M532.9,758.7c0.4,0.1,0.8,0.2,1.2,0.3c1.3-2.3,2.5-4.7,4-6.8c2.2-3,0.8-4.9-1.8-7
		C535.9,749.9,529.4,753.1,532.9,758.7z M232.3,711.7c0,0.3,0,0.5,0,0.8c3.8,1.4,7.6,2.8,12.1,4.4c-1.1-3-2-5.4-2.9-7.8
		C238.2,710,235.3,710.9,232.3,711.7z M288.6,761.6c-0.3,0.1-0.5,0.2-0.8,0.4c2,5.6,4.1,11.1,6.1,16.7c0.3-0.1,0.6-0.2,0.9-0.3
		C294.1,772.2,293.2,766.2,288.6,761.6z M556.4,799.3c-0.2,2.9-0.3,5.3-0.5,7.8c0.2,0.1,0.5,0.2,0.7,0.3c2.4-2.7,4.8-5.4,7.8-8.8
		C561.1,799,558.9,799.1,556.4,799.3z M151.1,766.7c4-0.4,9.4-9,9.5-14.8C157.6,756.5,154.4,761.6,151.1,766.7z M595.4,677.1
		c-2.2-4.3-5.7-2.1-8.4-2.4c-0.9-0.1-1.9,1-2.9,1.6c0.2,0.3,0.3,0.6,0.5,0.8C587.9,677.1,591.3,677.1,595.4,677.1z M208.7,678
		c-2.1,2.5-4,4.8-6.4,7.6C210.5,684.5,211.1,683.8,208.7,678z M357.7,337.5c-0.4,0-0.8-0.1-1.2-0.1c0,3.8,0,7.6,0,11.4
		C356.8,345.1,358.2,341.4,357.7,337.5z M450.3,337.5c-0.5,0.1-0.9,0.1-1.4,0.2c0.5,3.8,1,7.6,1.5,11.4
		C450.6,345.1,451.5,341.2,450.3,337.5z M239.9,684c-0.3,0.2-0.6,0.4-0.9,0.6c0.4,3.8,0.7,4.1,4.6,2.8
		C242.1,686.1,241,685.1,239.9,684z"/>
	<path class="st0" d="M259.9,294.1c4.8-7.2,3.4-15,3.2-22.5c-0.1-7.5-0.7-15-1-22.5c-0.7-16.8-1.3-33.6-1.8-50.5
		c-0.1-3.6-2-5.6-4.7-7c-5.1-2.6-10.6-3.1-16.2-3.2c-1.1,0-2.1-0.6-3.2-0.9c0.5-1,0.7-2.5,1.6-3c3.4-2.1,6.9-4,10.7-6.2
		c-1-0.8-2.4-1.9-3.7-3c1.7-2.3,1.7-2.2,3.8-0.6c3.3,2.4,6.6,4.7,9.9,7c0.9,0.6,2.1,0.9,3.7,1.5c-0.5-5.2-0.7-9.7-4.9-12.8
		c-0.4-0.3-0.7-1.8-0.5-1.9c2.9-1.9,2.7-5.1,2.7-7.8c-0.1-11.3-0.5-22.7-0.9-34c-0.2-6.2-0.7-12.4-1.1-18.5
		c-0.3-0.1-0.5-0.2-0.7-0.2c-6.7-0.1-9.8,3.4-11.5,9.9c-1.2,4.7-4.8,9-7.7,13.2c-3.8,5.6-4.8,11.7-4.1,18.1c0.7,6,2,12,3.1,18.1
		c-6.9,3.6-9.5,10.6-13,17.8c-0.4-2.1-1.3-4.2-1.2-6.2c0.7-12.9,0.8-25.8-1.7-38.5c-0.9-4.3-2.9-8.4-4.4-12.5
		c12.6-1.6,21.6-8.6,27.5-20.2c0.5-1,2.5-1.8,3.8-1.9c9.8-0.2,19.1-2.4,28.2-5.8c2.9-1.1,5.5-2.9,9-4.7c-1.3,3.1-2.6,5.4-3.1,7.8
		c-0.6,3.2,0.6,4.2,4.4,4.6c-4.6,10-3.5,20.6-3,31.1c0.6,13.8,1.9,27.6,3.1,41.3c0.3,4,1.5,7.9,2.4,12.7c-3.9-0.5-7.9-0.8-11.8-1.5
		c-8.8-1.7-16.9-5.4-24.6-10c-1.7-1.1-2.9-1.2-4.6-0.2c-2.2,1.3-4.5,2.4-6.7,4c9.8,1.3,17.6,7,26.4,10.1c7.1,2.5,14.4,4.3,21.4,6.3
		c-4.3,3.8-2.1,9.3-1.6,14.5c0.1,0.9,2.1,1.6,3.3,2.5c-0.6,6.5-1.6,13.4-1.8,20.4c-0.3,9.6-0.2,19.3,0,28.9c0.1,7,0.8,13.9,0.9,20.9
		c0,1.2-1.1,2.9-2.2,3.5c-13.5,6.7-25.6,15.6-36.8,25.6c-1.5,1.3-3,2.8-4.5,4.2c-7.4-9-15-17.4-27.6-18.7c3.3-1.6,3-5,3-7.7
		c-0.1-12.6-0.6-25.3-1-37.9c-0.2-5-0.5-10-0.7-14.9c-0.3-0.2-0.7-0.4-1-0.6c-2.4,2.3-5.3,4.2-7.1,7c-5.4,8.2-10.2,16.8-15.6,25
		c-5.5,8.4-11.8,16-20.6,21.2c-0.8,0.5-1.4,1.8-1.4,2.8c0.2,7.1,0.5,14.2,0.9,21.2c0.1,1.2,0.4,3,1.3,3.5c2.5,1.6,1.6,3.4,1.3,5.7
		c-1,7.5-1.5,15-2.2,22.9c9.3-2.5,18.9-21.4,17.8-34.6c-2.5,1.3-4.7,2.4-7,3.6c-0.3-0.3-0.6-0.6-0.9-0.9
		c5.2-5.2,10.4-10.4,10.5-18.6c0.4,0.7,0.9,1.3,1.1,2c5.2,17.5,1.9,33.6-10.3,47c-7.6,8.3-16.7,15.3-25.3,22.6
		c-2.7,2.3-6.2,3.7-10.1,5.9c0-25.5,0-49.9,0-74.7c-5.7,0.6-10.7-0.4-14.8-4.1c-0.6-0.6-0.4-2.1-0.5-3c5,1.4,9.9,2.8,15.5,4.3
		c0-2,0-3,0-4c-0.4-17.9-0.9-35.8-1.3-53.8c-0.3-11.7-0.6-23.4-0.6-35c0-6-1.5-11.3-5.8-16.1c4.8-3.6,5.1-8.7,3.9-13.9
		c-2-8.2,3.7-12.1,8.6-16.3c14.3-12.1,30.9-20.7,46.4-30.9c2.9-1.9,5.5-4.4,8.3-6.6c0.8-0.6,1.6-1.2,2.4-1.7c0.2,1,0.6,1.9,0.6,2.9
		c-0.2,10.7-0.3,21.4-0.6,32.2c-0.1,2.9,0.8,5.1,4,5.7c-4.8,7-4,14.7-3.7,22.4c0.5,11.6,1,23.1,1.7,34.7c0.4,5.7,1.2,11.5,1.9,17.2
		c0.2,1.1,1,2.2,1.9,3.2c0.9-6.3-1.6-12.8,1.6-19.7c1.6,9.4,6.9,13.4,15.2,13.1c-1.9,16.7-0.4,33.3-0.3,49.9
		c0.1,7.5,0.1,15,0.4,22.5c0.1,1.4,1,3.3,2.1,4.2c7.8,5.7,7.8,5.6,16.1,0.4c2.9-1.8,5.7-3.9,8.7-5.5c2.5-1.4,3.7-3,3-5.9
		C264.8,297.1,264.2,294.1,259.9,294.1z M188.8,237.8c4.5-4.3,4.6-9.6,4.2-15.1c-0.7-9.3-1.2-18.6-1.7-27.9
		c-0.8-13.9-1.5-27.8-2.2-41.8c-0.2-3.4-0.5-6.7-0.8-10.6c-5.2,3.6-9.9,6.8-14.8,10c-1.7,1.1-2.4,2.3-2.3,4.4
		c0.5,23.7,0.9,47.4,1.3,71.1c0.3,19.7,0.6,39.5,0.9,59.2c0,1.2,0.2,2.5,0.3,4.3c1.4-0.8,2.4-1.1,3.1-1.8c2.7-2.4,5.7-4.7,8-7.4
		c6.8-8,13.3-16.2,10.3-27.9c-0.2-0.7,0-1.5-0.1-2.2C194.2,246.9,194.3,241.4,188.8,237.8z M217,242.3c-0.8-2.5-1.9-2.4-3.6-1.3
		c-6,4.1-10.9,9.1-14.4,15.4c-0.8,1.4-1,3.1-1.5,4.6c0.4,0.2,0.8,0.4,1.2,0.6C203.8,254.4,208.2,246.1,217,242.3z M154.3,307
		c4.9-1.5,9.7-3.2,14.6-4.5c2.6-0.7,3.4-1.8,2.3-4.7c-5,1.7-10,3.4-15.1,4.9C153.8,303.5,153.3,304.6,154.3,307z M172.1,291.6
		c-0.3-0.3-0.6-0.7-1-1c-4.9,1.6-9.7,3.4-14.6,4.7c-2.9,0.8-3.2,2.1-2.3,4.8c5.4-2,10.8-3.9,16-6
		C171.1,293.7,171.5,292.4,172.1,291.6z"/>
	<path class="st0" d="M371,109.2c0.7,0.4,1.4,0.9,2.3,1.4c-4.3,5-4.3,11-4.4,16.8c-0.2,8.5-0.1,16.9,0.5,25.6
		c6.2-5.1,8.6-12.4,11-19.6c0.3,0.1,0.6,0.1,0.9,0.1c0,3.2,0.3,6.4-0.1,9.5c-1,7.9-4.2,14.8-11.1,19.5c-0.5,0.4-1,1.1-1.1,1.7
		c-0.1,2.4-0.1,4.9-0.1,7.3c4.7-0.7,6.8-4.1,6.5-9.6c2,0.8,2.3,1.7,2,5.4c-0.3,4.2-2,5.7-8.3,7.3c0.2,3,0.4,6.1,0.5,9.2
		c0.4,24.2,0.7,48.5,1,72.7c0.1,5.4,0.1,10.7,0.4,16.1c0.1,2.1-0.6,2.9-2.6,3.7c-3.6,1.4-7,3.2-10.5,4.9c-0.9,0.4-1.6,1.2-2.3,2.4
		c9.2-2.6,18.1-3.4,27,2.9c-0.4-2.8-0.6-4.6-0.9-6.4c0.3-0.1,0.6-0.3,0.9-0.4c3,3.8,4.6,8.4,7.3,13.3c-1.6-0.4-2.8-0.3-3.5-0.8
		c-12.5-9.3-25.5-7.7-38.6-1.6c-1.5,0.7-3.2,1.2-4.8,1.8c-0.3-0.4-0.5-0.8-0.8-1.2c1.2-1.2,2.3-2.5,3.7-3.5
		c3.9-2.9,7.8-5.7,11.7-8.4c1.6-1.1,2.3-2.3,2.2-4.2c-0.2-2.9-0.2-5.8-0.1-8.7c0.1-4.8-1.2-8.7-6.6-10.7c3.7,0,5.5-1.9,6.1-5.1
		c0.5-2.8,1.2-5.7,1.1-8.6c-0.2-8.6-0.7-17.1-0.9-25.7c-0.3-11.7-0.7-23.4-0.8-35.1c0-3.2-0.8-5-4.3-5.3c-1.9-0.1-3.7-0.8-6.6-1.4
		c3.4,4.8,6,9.2,3.7,14.4c-2.1,4.7-5.5,8.3-10.2,10.7c2.3-2.6,4.7-5.3,7-8c3.8-4.4,2.4-14.2-2.4-17.3c-2.8-1.8-5.8-1.4-8.7-0.4
		c-11.1,3.7-16.6,11.2-16.5,22.9c0.1,13.4,0.2,26.8,0.7,40.2c0.2,6.5,1,13,2.1,19.5c0.6,3.6,2.5,6.9,3.9,10.5
		c-4.7,2.7-6.7,8.1-8.8,13.2c-2.7,6.7-4.8,13.6-7.1,20.5c-4.5-7-9.5-14.1-19.2-16.9c7-3.2,6-8.9,5.9-14.5c-0.6-16.5-1-33-1.6-49.5
		c-0.4-11.8-0.6-23.6-1.2-35.4c-0.6-12.2-1.5-24.4-2.6-36.5c-0.3-3-1.9-5.9-2.9-9.1c5.6-4.1,5.9-15.7,0.1-21.4
		c8.1-12.8,16.4-25.5,28.7-35.5c0,16.8-0.2,33.2,0.1,49.6c0.2,16.3,0.9,32.6,1.4,49.3c1-0.4,1.9-0.5,2.5-0.9
		c10-7.8,21.4-13,33.1-17.6c0.9-0.4,2.1-1.6,2.1-2.4c-0.3-20.5-0.7-40.9-1.2-61.9c-4.9,3-6.7,11.5-15,7.3
		c12-7.8,20.4-18.9,28.6-30.6c0,3.7,0.1,7.3,0,11c-0.1,6-0.5,12-0.5,18c0,1.8,0.9,3.7,1.4,5.5c-1-0.4-2-0.9-3-1.4c0,2.5,0,4.7,0,6.9
		c0.4,0.1,0.7,0.2,1.1,0.2C369.8,113.1,370.4,111.1,371,109.2z M299.2,204.9c0.8-1.1,1.3-1.6,1.6-2.2c3.9-7.5,8.9-14,15.9-18.9
		c0.9-0.6,1.1-2.1,1.8-3.6C311.3,181.2,298.1,198.1,299.2,204.9z M317.7,187.2c-0.4-0.2-0.7-0.3-1.1-0.5
		c-4.8,5.1-10.4,9.6-12.1,15.2c3.5-3.1,8.2-7,12.6-11.2C317.8,190.1,317.5,188.4,317.7,187.2z M354.6,167.7
		c-2.8,1.6-5.1,2.9-8.1,4.6c3.2,0.8,5.5,1.4,8.1,2.1C354.6,172.1,354.6,170.2,354.6,167.7z M366.5,153.1c-5.5,1.4-6.8,2.8-6.2,6.2
		C365.3,157.9,366.9,156.3,366.5,153.1z M360.3,166.4c5.2-0.8,7.1-2.6,6.3-6.1C361.7,161.6,359.9,163.3,360.3,166.4z M369.4,162
		c1.7-2.1,3-3.7,4.4-5.3c-0.3-0.3-0.6-0.5-0.9-0.8C371.6,157.7,368.2,157.7,369.4,162z"/>
	<path class="st0" d="M532.1,272.6c-6.6,8.1-13.2,16.3-20.1,24.8c-0.3-0.6-0.9-1.7-1.3-2.9c-1.8-6.1-3.2-12.4-5.4-18.4
		c-1.7-4.5-5.3-7.4-10.2-8.4c-0.7-0.1-1.3-0.6-2.1-1.1c0.5-0.6,0.7-1.2,1.1-1.3c3.3-1.6,4.1-4.6,3.9-7.8c-0.6-8.1-0.7-16.3-2.2-24.3
		c-3.5-19.1-7.6-38-11.4-57c-0.4-2.1-1.4-3.1-3.4-3.7c-5.3-1.8-10.6-3.5-16.3-2.7c-0.4,0.1-0.9-0.2-1.4-0.4
		c-0.8-0.4-1.5-1.2-2.2-1.1c-3.6,0.1-7.2,0.4-11.1,0.6c0,1.4,0,3.3,0,5.4c0.8-0.1,1.7-0.2,2.5-0.3c0,0.5,0,1,0,1.8
		c1.1-0.6,2-1.1,2.2-1.3c-0.8,2.8-2.1,6-2.5,9.3c-0.4,3.1,2.7,6.6,5.9,7.7c3.2,1.1,6.3,0.1,8.6-2.7c2.1-2.5,2.2-5,0.2-7.6
		c3,0.4,5.1,3,3.7,5.5c-1.6,3-3.9,5.9-6.6,7.9c-2.5,1.8-5.6,0.8-7.9-1.4c-1.6-1.6-3.2-3.3-5-5.2c0,5.3-0.2,10,0,14.8
		c0.5,12.8,1.1,25.5,1.7,38.2c0.2,5.2,0.4,10.4,3.7,15c0.7,0.9-0.1,3.5-1,4.8c-4.2,5.9-3.7,15,1.7,19.8c3.1,2.8,6.5,5.2,9.9,7.9
		c-0.3,0.3-0.8,0.6-1.5,1.2c1.1,0.8,2.2,1.6,3.5,2.6c-0.7,0-1.3,0.2-1.6,0c-10.4-5.8-20.8-4.5-31.4-0.5c-1.8,0.7-3.5,1.6-5.3,2.3
		c-1.4,0.5-3,0.8-4.4,1.2c-0.2-0.3-0.4-0.7-0.6-1c3.7-4.2,7.3-8.4,11-12.6c0.4,0.3,0.8,0.6,1.2,0.9c-1.2,1.5-2.4,3.1-3.9,5.1
		c6.6-0.8,12.8-1.5,19.7-2.3c-1.9-1.4-3.5-2.7-5.2-3.7c-2.2-1.2-3.1-2.8-3.2-5.4c-0.1-7.1-0.6-14.1-0.9-21.2
		c-0.7-17.5-1.4-34.9-2.1-52.4c-0.5-11.1-1.1-22.2-1.7-33.3c-11-4-12.6-5.8-10.7-12.4c3.3,7.4,4.4,8.3,10.6,8.6
		c0-3.2,0.1-6.3-0.1-9.5c0-0.6-0.7-1.3-1.2-1.8c-5.5-4.6-11-9.2-13.7-16.2c-0.1-0.2-0.5-0.3-1.5-0.8c-0.4,4.7,2.7,8.2,3.3,12.3
		c-4.1-3-6.3-14.3-3.4-20.4c1.3,2.7,2.4,4.8,3.2,6.9c2.2,6.1,6.1,11,11.3,14.8c0.3,0.3,0.7,0.4,1.1,0.6c0.2,0.1,0.4,0,1.2-0.2
		c-0.4-8-0.7-16.1-1.3-24.2c-0.4-4.7-0.8-9.5-2.3-13.9c-1.6-4.5-1.3-8.2-0.2-12.8c1.4-5.9,0.5-12.3,0.1-18.5
		c-0.2-3.9-0.6-3.8,2.1-7.2c4.4,3.4,8.6,7.3,13.4,10.2c11.2,6.8,22.3,14.2,35.1,17.8c4.9,1.4,10.1,1.7,15,2.4
		c-3.7,10.9-0.2,21.7,3.3,32.3c0.6,1.9,2.7,3.4,4.2,5.1c0.5,0.6,1.2,1.2,1.4,1.9c0.1,0.3-1.1,0.8-1.5,1.3c-0.9,1.4-2.3,2.9-2.3,4.3
		c0.1,4.8,0.6,9.6,1.3,14.4c4.8,33.7,11.8,66.9,19.9,99.9C529.7,267.4,531.1,270,532.1,272.6z M481.6,166.1c0.1-1.5,0.2-2,0.1-2.5
		c-3-20.1-6.1-40.2-9.3-60.3c-0.2-1.2-1.4-2.6-2.6-3.2c-7.3-3.9-14.5-7.7-20.5-13.5c-0.3-0.3-0.9-0.3-1.6-0.4c0,1.6,0,3,0,4.4
		c0.8,20.7,1.7,41.3,2.5,62c0.2,6.6,0.2,6.7,6.8,7c0.1,0,0.2,0,0.3,0C465.5,160.4,474.2,159.2,481.6,166.1z M486.1,165.5
		c-0.9,3,0.5,4.2,2.3,5.5c5,3.7,9.9,7.7,14.6,11.7c2.5,2.1,4.5,4.7,6.7,7c0.4-0.2,0.7-0.4,1.1-0.7c-0.9-2-1.5-4.4-2.9-5.9
		c-3.8-4-7.9-7.8-12.2-11.3C492.8,169.5,489.4,167.7,486.1,165.5z M450.2,166.4c7.8,0,15.1,0,22.5,0c0-0.4,0.1-0.8,0.1-1.2
		c-7.3-1.5-14.6-3.1-22.2-4.7C450.4,162.8,450.3,164.7,450.2,166.4z M488.4,175.9c-0.4,0.4-0.8,0.7-1.3,1.1c1,1.3,1.8,3,3.1,4
		c3.8,2.7,7.8,5.1,11.7,7.7c1.8,1.2,3.4,2.5,5.1,3.8c0.2-0.3,0.4-0.5,0.6-0.8C503.2,184.1,496.1,179.6,488.4,175.9z M443.4,158.3
		c0,3,0,5.8,0,8.7c1.6,0,2.9,0,4.2,0C448.1,159.6,448.1,159.5,443.4,158.3z M442.8,150.6c-0.4,3.7-0.1,4,4.3,4.7
		C447.7,151.7,447.3,151.2,442.8,150.6z M444.1,172.2c4.3-0.3,4.3-0.3,3.7-3.4C443.7,169.1,443.7,169.1,444.1,172.2z"/>
	<path class="st0" d="M640.1,271c0.1-1.7,0.2-2.5,0.2-3.2c0.2-33.9,0.4-67.8,0.5-101.7c0-2-1.2-3.9-1.7-5.9
		c-0.3-1.2-0.2-2.4-0.4-4.6c9.6,6.7,18.3,12.9,27.8,19.5c-6.2,0.4-5.2,4.4-5.2,7.9c0.1,5.5,0.1,10.9,0.3,16.4
		c0.1,3.7,0.8,7.2,4.2,9.5c2.1,1.4,1,3.4-0.4,4c-3.3,1.4-3.7,4.2-3.7,6.9c-0.1,20-0.1,39.9-0.1,59.9c5.3-0.8,9.6-6,12.3-15
		c2.8,4.5,1.8,12.3-2.1,15.5c0.2-1.3,0.4-2.5,0.7-4.4c-1,0.6-1.7,0.9-2.2,1.3c-2,1.7-3.8,3.7-6,5.2c-1.6,1.1-2.3,2.1-2.2,4.1
		c0.1,10.9,0.2,21.9,0,32.8c-0.2,13.1-0.8,26.1-1.2,39.2c-0.1,3.8,1.5,7.7-1.5,11.6c-1.4-1.2-2.8-2.5-4.2-3.8
		c-16.6-16-33.4-31.8-49.6-48.2c-10.4-10.5-16.8-23.5-18.7-38.3c-0.7-5.7-0.1-11.5,0.3-17.3c0.3-5.1,0.5-10.1-1.2-14.9
		c-0.2-0.7-0.3-1.4-0.5-2.5c3.9,2.6,6.4,5.7,8.1,9.5c0.6,1.4,1.3,2.8,1.6,4.2c1.4,5.8,3.2,11.4,8.9,14.7c-0.3,0.3-0.5,0.6-0.8,0.8
		c-2.3-1.3-4.5-2.5-7.6-4.2c0.4,5.5,0.4,10.7,1.1,15.8c1.7,11.3,5.7,21.9,12.4,31.1c4.3,5.8,9.9,10.7,15,15.9
		c4.2,4.4,8.5,8.7,12.7,13.1c0.4,0.4,1,0.7,2.3,1.6c0.5-14.3,3.7-28-3.1-41.5c5.2-3.6,4.7-10,5.5-15.7c0.9-6.7,0.5-12.3-6.9-16.4
		c-8.2-4.6-13.4-12.7-17.5-21.3c-4.6-9.6-12.1-16.2-22-20.1c-0.9-0.3-1.7-0.9-2.8-1.5c5.1-4.6,2.9-10.6,3.4-15.9
		c1-10.6,1-21.2,1.3-31.8c0.1-5.2,0.1-10.4-4.3-14.2c-0.2-0.2-0.1-0.8-0.2-1.2c4.8-1.4,4.8-1.5,4.9-7c0.1-4.9,0.2-9.9,0.7-14.8
		c0.6-6.1-0.1-12-2.4-17.7c-0.2-0.5-0.3-1,0.1-2c10,6.9,20,13.8,30.4,20.9c-1.2,0.6-1.6,0.9-2.1,1.1c-4,1.2-4.8,2.3-4.9,6.6
		c-0.2,9-0.4,18-0.5,27c-0.1,8.5,0,17-0.2,25.4c-0.2,6.4,1.9,12,5.8,17.2c-0.8,0.5-1.3,1.2-1.9,1.3c-3.8,0.4-4.6,3-4.5,6.2
		c0,0.1,0,0.2,0,0.3c-2.3,14.9,7.2,24,16.2,33.4C635.5,267.6,637.5,269,640.1,271z M595.8,295c-0.1-1.4-0.3-2.9-0.3-4.3
		c-0.3-7.5-0.9-14.9-0.8-22.4c0-3.9-2.8-5.9-3.9-8.9C588.9,268,591.9,290.5,595.8,295z M614.2,241.3c1-3-0.5-4.4-2.4-5.9
		c-4.3-3.4-8.4-7.1-14.2-8.7c0.3,1.4,0.9,2.6,1.8,3.3c1.9,1.5,4.1,2.7,6,4.2C608.5,236.5,611.3,238.9,614.2,241.3z M644,281
		c-0.3,0.2-0.6,0.5-0.8,0.7c0.5,1.1,0.7,2.9,1.5,3.3c4.7,2,9.6,3.4,15,2.4c-0.1-1.3-0.2-2.4-0.2-3.7
		C653.5,285.5,648.9,282.7,644,281z M659.2,278.3c-5.4-1.8-10.2-3.5-15.1-5.1c-0.4,4.2,8.2,8.3,15.1,7
		C659.2,279.4,659.2,278.6,659.2,278.3z"/>
	<path class="st0" d="M422.4,232.2c-3.6,4.3-4.4,9.1-3.5,14.2c0.9,5,3.2,6,7.8,3.9c0.4-0.2,0.9-0.4,2.3-0.9
		c-7.3,15.4-14.1,30.1-21.3,45.4c-10.1-14.3-20-28.2-30.3-42.9c2.4,0.6,4,1.1,5.6,1.4c4.3,1,6.3-0.2,6.5-4.5c0.2-4,0-8.2-0.8-12.1
		c-0.5-2.3-2.5-4.4-4.1-7c3.2-5.8,4.5-13.3,4.4-20.8c-0.1-30.2-0.5-60.5-0.9-90.7c0-2.8-0.1-5.6-0.3-8.3c-0.4-5-2.2-9.4-6.1-13
		c7.6-7.8,3.1-17.1,3.5-26.4c-5.2,1-10,2.1-14.8,2.9c-8.1,1.3-16.2,2.6-24.4,3.7c-1.9,0.3-2.8,0.9-3.3,2.7c-1.4,4.2-3,8.3-4.4,12.4
		c-0.8,2.3-2,2.6-3.7,0.7c-3.1-3.4-6.2-6.8-9.4-10.1c-1.6-1.7-1.2-2.8,0.7-4c5.8-3.5,12.2-4.7,18.7-5.5c12.6-1.6,25.3-2.7,37.9-4.7
		c4.9-0.8,9.6-3,14.1-5.1c2.3-1.1,4-3.6,6.4-6c0.1,0.3,0.3,0.7,0.4,1.1c0.9,4.6,4.5,6.2,8.3,7.6c8.5,3,17.3,3.6,26.2,4.6
		c12.4,1.4,24.8,3.4,37.2,5.2c0.6,0.1,1.1,0.5,2,0.9c-2.7,5-5.2,9.9-8.2,15.5c-2.2-4.8-4.3-8.8-5.9-13.1c-1-2.5-2.5-3.9-5-4.2
		c-5.9-0.8-11.9-1.7-17.8-2.2c-6.8-0.6-13.7-1-20.5-1.4c-0.7,0-1.5,0-2.3,0c-1.9,6.9-1.9,13.3,2.9,19c-4.2,6-4.7,12.8-4.6,19.6
		c0.3,29.8,0.9,59.7,1.4,89.5c0.1,6.6,0.2,13.3,0.4,19.9C417.5,224,418.5,228.6,422.4,232.2z M340.3,77.5c-4.5,0.6-8.5,1.2-13.2,1.9
		c3,3.8,5.5,7.1,8.6,11C337.4,85.6,338.7,81.9,340.3,77.5z M467.9,86.7c0.3,0,0.6,0.1,1,0.1c1.3-2.6,2.6-5.2,3.8-7.9
		c0.2-0.4-0.4-1.6-0.8-1.7c-2.2-0.6-4.4-1.1-7.3-1.7C465.8,79.8,466.9,83.3,467.9,86.7z"/>
	<path class="st0" d="M509.4,134.1c-1.7-14.1-3.5-28.3-5.2-42.4c-0.2-2.1-0.3-4.2-3.2-4.3c1.3-2.2,2.9-1.9,4.9-1.1
		c19.5,7.9,39.1,15.5,58.4,23.7c8.8,3.8,17.2,8.8,25.8,13.1c1.8,0.9,2,2.2,1.8,3.9c-1.2,10.7-2.4,21.5-3.5,32.2
		c-0.2,1.8-0.4,3.6-1.2,5.8c-0.6-0.8-1.5-1.6-1.6-2.4c-1-9.5-2.1-19-2.6-28.5c-0.5-9.7-9.5-17.7-18.2-19.7c0,6.5,0.1,12.9,0,19.3
		c-0.2,18.9-0.4,37.8-0.7,56.6c-0.2,11.8-0.1,23.6-0.7,35.4c-0.4,7.2,0.1,13.9,3.8,20.1c0.3,0.5,0.2,1.5-0.1,2
		c-2.5,5.2-3,10.7-2.8,16.3c0.7,16.3,1.6,32.5,2.5,48.8c0.1,1.1,0.6,2.3,1.2,3.1c3,3.7,6.1,7.3,9.4,11.1c-4.1,1.1-6.8,0.1-9.4-2.8
		c-8.2-9.1-17.1-17.4-27.4-24.1c-1.9-1.2-3.9-2.2-6-3.3c3.6-3.3,4.3-7.7,4.3-12.3c-0.2-29.1-0.4-58.2-0.7-87.2c0-1.6,0-3.2,0-4.8
		c-0.1-4.3-1-8.3-4.6-11.3c3.7-5.4,4.3-11.6,4.5-17.7c0.3-8.1,0.2-16.3,0.1-24.4c0-11.5-0.2-23-0.2-34.5c0-2.2-0.6-3.2-2.8-3.9
		c-5.4-1.6-10.7-3.5-16.5-5.5c-3,13.2-6,26-8.9,38.8C509.9,134.1,509.7,134.1,509.4,134.1z M510.7,110.8c0.3,0,0.7-0.1,1-0.1
		c1.2-5.4,2.4-10.8,3.4-16.2c0.1-0.5-0.5-1.4-1-1.6c-2-0.9-4.2-1.5-6.9-2.5C508.4,97.6,509.6,104.2,510.7,110.8z M586.8,139.8
		c0.3,0,0.6,0,0.9,0c0.3-2.5,0.7-4.9,1-7.4c0.5-4.7-0.1-5.5-5.4-7.1C584.5,130.2,585.7,135,586.8,139.8z"/>
	<path class="st0" d="M337.7,201.6c-4.9,1.6-10.5-5.2-10.4-9.1c0-1.5,1.4-3.6,2.7-4.2c1.7-0.8,4-0.4,6.1-0.3c0.2,0,0.4,1.2,0.6,1.8
		c-0.7,0.2-1.5,0.6-2.2,0.5c-1.1-0.2-2.1-0.6-3.1-1c-0.4,1.6-1.4,3.4-0.9,4.8C331.5,197.6,332.9,201.4,337.7,201.6z"/>
	<path class="st0" d="M410.6,563.4c3.1,2.9,6,5.9,9.2,8.7c5.1,4.4,10.7,7.8,17.3,9.6c13.6,3.7,26.4-4.2,32.5-12.6
		c1.1-1.5,1.8-3.4,2.3-5.3c0.4-1.8,1-4-1.5-5c-2.3-0.9-4.7-1.1-6.4,1.2c-1.5,2.1-1,4,1,5.6c-0.2,0.2-0.4,0.5-0.6,0.7
		c-1.2-0.9-3.2-1.7-3.4-2.8c-0.4-1.9-0.2-4.7,0.9-5.8c1.5-1.5,4.3-2.4,6.5-2.3c3.7,0.3,6.9,2.6,7.7,6.4c0.6,2.7,0.3,5.8-0.5,8.5
		c-2.6,8.8-9,14.1-17.2,17.5c-18,7.6-39.6,3.3-51.6-10.2c-1.1-1.2-2-2.5-2.9-3.5c-3.6,3.3-6.9,7-10.8,9.8
		c-15,10.5-38.4,10.1-52.4-0.7c-5.8-4.4-9.4-10.2-10.2-17.6c-0.7-6.8,6.7-12.5,12.6-9.8c2.6,1.2,4,3.3,3.7,6.2c-0.3,2.3-1.5,4-3.7,4
		c0-2.1,0.7-4.4-0.2-5.9c-0.7-1.1-3.3-1.5-5-1.6c-2.2,0-3.1,1.5-2.9,3.7c0.5,6.2,4.6,10,9.1,13.4c13.6,10,27.5,9.2,41.8-2.4
		c3.7-3,7.1-6.5,10.6-9.8c-0.2-0.3-0.4-0.6-0.6-0.9c-0.9,0.5-1.9,1-2.7,1.5c-5.8,3.7-12,6.6-19,5.9c-12.3-1.3-20.1-9-25.6-19.3
		c-5.7-10.8-5.3-22.4-2.7-33.9c3.3-14.8,9.3-28.5,17.8-41.1c12.3-18.2,20.2-38.4,26.8-59.3c0.7-2.2,1.4-4.5,2.1-6.7
		c0.1-0.2,0.2-0.3,0.5-0.6c1.1,1.2,2.2,2.4,3.5,3.8c0.4-0.7,0.7-1.2,1.1-1.9c2,2.4,3.8,4.5,5.9,7c2-2.3,3.8-4.4,5.8-6.7
		c0.5,0.4,0.9,0.8,1.5,1.4c1.1-1.2,2.1-2.3,3.5-3.8c1.3,4.2,2.5,8.1,3.8,12c6.8,20.3,15.3,39.7,27.2,57.7
		c10.1,15.3,17,32.3,17.7,51.1c0.4,11.8-2.9,22.5-11.5,31c-11.2,11-22.8,12.4-36.1,4.2c-1.3-0.8-2.6-1.6-4-2.3
		C411.1,562.9,410.9,563.1,410.6,563.4z M403.5,547.5c2.5,2.3,5,4.6,7.6,6.9c14.1,12.3,28.5,5.6,36.3-3.1c6.6-7.4,7.8-16.5,7-26
		c-1.2-13.5-6-25.8-12.4-37.6c-4.9-9-10.2-17.9-14.9-27c-5.8-11.3-11-22.8-13.2-35.4c-0.3-1.8-0.5-3.7-0.8-6c-2.7,2.3-5,4.2-6.4,5.4
		c-2.5,0-4,0-6.4,0c-1.5-1.3-3.8-3.2-6.2-5.2c-0.8,4.4-1.3,8.2-2.3,11.9c-4.5,16.4-12.2,31.3-20.7,45.9
		c-6.8,11.6-13.3,23.3-16.6,36.4c-2.4,9.7-3.5,19.4,0,29.2c6.3,17.6,27,23.4,41.3,11.5C398.5,552.2,401,549.8,403.5,547.5z"/>
	<path class="st0" d="M473.3,499.8c-1.7-11.3,2.4-19.7,13.6-25.5c-27.8-6.5-40.1-24-40.1-51.3c3,4.8,5.7,9.4,8.7,13.7
		c11.3,16.2,25.7,28.4,44.9,34.3c1.3,0.4,2.7,0.7,4.1,0.7c8.6-0.1,17.2-0.3,25.7-0.3c19,0,38,0.4,56.6-4.5c0.1,0.4,0.2,0.7,0.3,1.1
		c-3.2,1.2-6.3,2.9-9.6,3.4c-10,1.4-20,2.4-30,3.3c-13.7,1.3-27.4,1.9-41,3.7c-13.7,1.8-24.5,9-32.5,20.5
		C473.7,499.1,473.5,499.4,473.3,499.8z M452.4,437c-0.3,10.2,12.6,25.6,21,26C466.5,454.5,459.3,445.6,452.4,437z M476.8,491.3
		c3.3-3.1,6.4-6.4,9.9-9c3.5-2.6,7.6-4.5,11.6-6.8C490.1,474.3,478.3,481.7,476.8,491.3z"/>
	<path class="st0" d="M220.3,467.4c8.1,1.1,16.1,2.7,24.2,3.1c12.7,0.7,25.5,0.5,38.3,0.8c6.5,0.1,13.1,0.3,19.6,0.3
		c1.4,0,2.8-0.2,4.1-0.6c21.9-6.7,37.3-21.3,49-40.3c1.4-2.2,2.7-4.4,4-6.6c0,0,0.2,0,0.7,0c-0.2,11.8-2.4,22.9-9.7,32.5
		c-7.3,9.7-17.8,14.4-30.2,17.6c10.6,5.8,15.3,14.1,13.9,25.4c-0.4-0.1-0.6,0-0.7-0.1c-9.6-14.4-23.4-21.2-40.3-22.4
		c-14.4-1.1-28.9-1.9-43.3-3.3c-8-0.7-15.9-2.1-23.8-3.5c-2.1-0.4-4-1.7-6-2.6C220.1,467.6,220.2,467.5,220.3,467.4z M333.3,463.4
		c10.2-2.1,21.8-16.9,21.2-26.3C347.6,445.6,340.4,454.5,333.3,463.4z M308.8,475.8c8.5,3.4,15.4,8.7,21.4,16.3
		C329.2,483.1,318.2,474.3,308.8,475.8z"/>
	<path class="st0" d="M484.2,582.6c-12.5,20.3-13.2,42.9-15.6,65.1c-0.4,0-0.7,0-1.1,0c-0.3-0.7-0.8-1.4-0.7-2.1
		c1-14.1,1.9-28.2,3.3-42.3c0.4-4.2,2.3-8.2,3.5-12.3c0.4-1.5,0.5-3.4,1.4-4.4c1-1.1,2.8-1.4,4.3-2
		C480.7,584,482.2,583.4,484.2,582.6z"/>
	<path class="st0" d="M338.3,647.7c-2.4-22.2-3.1-44.7-15.6-65c3.2,1.2,5.9,2.3,8.6,3.4c0.4,0.2,0.8,0.7,1,1.1
		c4.6,10.6,5.8,21.8,6.3,33.1c0.3,8.1,1,16.2,1.5,24.4c0.1,0.9-0.2,1.9-0.3,2.9C339.2,647.6,338.8,647.6,338.3,647.7z"/>
	<path class="st0" d="M403,591.4c1.1,1.6,1.8,2.4,2.1,3.3c0.5,1.3,0.5,2.9,1.3,3.9c2.2,2.9,1.7,5.8,1.3,9.1c-1.3,9.3-2,18.7-3,28
		c-0.1,1-0.1,2-0.2,3.1c-0.4,0.1-0.8,0.1-1.2,0.2c-0.2-1-0.6-2-0.7-3c-0.6-7.6-0.7-15.2-2-22.7c-0.9-5.6-3.1-10.8,0.8-16.1
		C402.4,595.9,402.3,594.1,403,591.4z"/>
	<path class="st0" d="M435.8,648.5c-0.2-2-0.5-4-0.5-6c0-7.4,0.1-14.8,0.3-22.1c0.1-2.4,4.3-6.7,6.6-6.7c2.1,0,2.7,1.5,1.8,3.1
		c-5.1,9.2-5,19.3-5.7,29.3c-0.1,1-0.8,2-1.3,3.1C436.6,648.9,436.2,648.7,435.8,648.5z"/>
	<path class="st0" d="M403,829.9c0.1-1.1,0.1-1.8,0.3-2.5c1-3.3,0.3-6-2.4-7.9c-3-2.2-4.6-2.1-7.5,0.3c-5.2,4.3-7.5,12.4-5.5,18.7
		c1.1,3.4,3.5,5.5,6.9,6.6c13.9,4.6,27.6-5.5,27-20.2c-0.2-4.1-0.9-8.4-2.2-12.3c-1.8-5.8-6.5-9.3-11.9-11.4
		c-8.6-3.4-17.6-4.2-26.6-2.7c-12.6,2-21.4,13-21.1,25.8c0.3,11.7,2.5,22.9,11.1,31.7c3.3,3.3,7.1,6.1,10.4,8.9
		c-10.7-2.9-22.1-15.9-24.7-28.6c-2.2-10.9-1.2-21.5,3.8-31.4c3.3-6.4,9.4-10.3,16-12.7c13.8-5,34.1-2.9,43.4,12.6
		c6.5,10.8,6,26.4-1.2,36.6c-5.7,8-21.2,12.2-30.7,2.6c-2.6-2.6-4.2-5.7-4.3-9.4c-0.1-5.4,1.5-10.4,4.7-14.7
		c2.2-2.9,5.1-4.3,8.7-3.6c4.1,0.8,7.8,2.7,9.6,6.7C408.2,825.8,406.7,828.6,403,829.9z"/>
	<path class="st0" d="M186.9,851.7c-1.7,19.3-8.8,35.6-26,46.3c-4.8,3-10.1,3.9-15.8,2.6c-6.1-1.5-9.5-5.4-10.7-11.5
		c-1.5-7.8-0.2-15.4,1.8-22.9c3.2-11.7,8.3-22.5,17.1-31.3c3.6-3.6,7.8-6.5,12.9-7.5c6.9-1.3,12.7-0.3,16.4,7.2
		C185.3,839.8,186.8,845.1,186.9,851.7z M146.7,893.2c5.9,3.1,12.9,2.8,17.9-2c12.1-11.4,19.7-25.1,18.8-42.3
		c-0.3-6-2.7-11.5-7.1-16.2c-0.8,1.2-1.4,2.1-2,3c-3.7,5.7-7.6,11.4-11.2,17.3c-1.8,2.9-3.3,6.1-0.5,9.2c2.1,2.3,2.1,4.6,0.6,7
		c-2.8,4.7-5.5,9.4-8.6,13.9C152.2,886.6,149.3,889.8,146.7,893.2z M172,833c-14,3.7-24.1,11.8-28.6,25.5
		c-3.4,10.5-5.9,21.2-1.1,32.4c0.7-0.5,1-0.6,1.2-0.9c4.4-7,9-13.8,13.1-21c1-1.8,1.3-4.7,0.6-6.7c-1.6-4.5-0.7-8,2.1-11.6
		C163.7,844.9,167.8,838.9,172,833z"/>
	<path class="st0" d="M175.6,863.9c-5.5,9.1-11,18.2-16.7,27.2c-0.7,1.2-2.3,1.8-3.5,2.7c-0.3-0.2-0.6-0.5-0.9-0.7
		c0.5-1.2,0.7-2.6,1.4-3.5c6.4-8.7,12.8-17.3,19.3-25.9C175.3,863.7,175.4,863.8,175.6,863.9z"/>
</g>
</svg>
